<svg id="svg" version="1.1" xmlns="http://www.w3.org/2000/svg" xmlns:xlink="http://www.w3.org/1999/xlink" width="400" height="400" viewBox="0, 0, 400,400"><g id="svgg"><path id="path0" d="M202.739 91.552 C 199.974 93.306,197.702 97.358,192.169 110.400 C 189.171 117.469,181.334 132.992,176.448 141.540 C 175.612 143.003,173.164 147.260,171.009 151.000 C 168.853 154.740,166.367 159.060,165.484 160.600 C 164.601 162.140,161.238 167.810,158.012 173.200 C 151.031 184.860,150.829 185.221,145.689 195.200 C 141.558 203.218,138.975 207.960,138.434 208.517 C 138.155 208.804,135.269 209.967,129.800 211.995 C 113.403 218.077,111.896 219.157,111.680 224.968 C 111.419 232.003,114.312 233.467,122.000 230.189 C 126.240 228.382,128.485 227.551,128.660 227.726 C 128.842 227.908,127.470 231.290,124.008 239.200 C 113.090 264.138,109.455 274.367,105.603 290.994 C 103.614 299.579,104.169 303.063,108.098 306.670 C 113.511 311.639,118.513 309.040,120.180 300.393 C 120.758 297.395,122.395 290.599,123.985 284.600 C 124.451 282.840,126.103 277.620,127.656 273.000 C 132.855 257.533,138.196 244.908,146.523 228.400 L 150.256 221.000 153.028 219.862 C 167.846 213.781,196.222 205.091,210.000 202.415 C 214.466 201.548,214.164 201.453,213.222 203.422 C 204.941 220.728,193.159 247.329,186.930 262.785 C 175.790 290.423,175.117 300.268,184.057 304.829 C 189.391 307.550,192.260 304.380,195.355 292.343 C 198.012 282.012,198.232 281.260,201.069 272.800 C 205.061 260.896,209.026 250.963,215.518 236.606 C 217.848 231.452,228.161 211.030,231.819 204.325 L 235.680 197.249 237.740 196.789 C 238.873 196.536,243.130 196.195,247.200 196.031 C 255.564 195.695,256.671 195.368,259.305 192.453 C 265.943 185.105,261.009 179.801,248.275 180.600 L 243.951 180.871 245.028 178.735 C 246.546 175.729,251.628 167.165,257.333 158.000 C 261.555 151.218,263.889 147.583,275.230 130.131 C 285.878 113.743,288.161 105.943,283.685 101.242 C 279.496 96.843,275.131 98.489,270.600 106.175 C 267.912 110.735,265.177 115.172,262.818 118.800 C 258.104 126.050,246.094 145.370,242.801 151.000 C 241.771 152.760,239.171 157.161,237.023 160.780 C 234.875 164.400,231.045 171.060,228.512 175.580 C 225.979 180.101,223.883 183.831,223.852 183.868 C 223.822 183.905,221.098 184.660,217.799 185.546 C 206.272 188.639,191.475 192.755,181.400 195.673 C 178.320 196.565,174.630 197.613,173.200 198.002 C 171.770 198.391,168.551 199.275,166.046 199.967 C 163.542 200.659,161.431 201.164,161.356 201.089 C 160.700 200.433,166.939 188.462,173.077 178.600 C 199.431 136.258,214.810 105.162,213.875 96.109 C 213.334 90.862,207.555 88.498,202.739 91.552 " stroke="none" fill="#f9f9f9" fill-rule="evenodd"></path><path id="path1" d="M0.000 200.000 L 0.000 400.000 200.000 400.000 L 400.000 400.000 400.000 200.000 L 400.000 0.000 200.000 0.000 L 0.000 0.000 0.000 200.000 M210.080 88.454 C 217.487 90.041,217.913 99.018,211.312 114.400 C 205.428 128.113,193.860 149.213,177.980 175.200 C 167.961 191.595,165.751 195.575,166.125 196.549 C 166.462 197.426,166.616 197.397,175.877 194.754 C 188.179 191.243,195.756 189.137,210.000 185.270 C 223.480 181.610,221.813 182.723,226.537 174.238 C 230.011 168.000,234.399 160.419,239.760 151.400 C 244.225 143.887,243.729 144.691,253.769 128.686 C 258.846 120.594,264.710 111.187,266.800 107.783 C 273.745 96.472,276.674 94.684,283.047 97.867 C 291.313 101.996,289.244 113.941,277.203 131.600 C 274.041 136.238,266.610 147.764,261.086 156.600 C 246.906 179.282,247.444 177.851,252.864 178.466 C 262.148 179.520,264.876 181.674,264.277 187.476 C 263.566 194.364,258.907 197.584,249.000 198.036 C 239.873 198.452,237.763 198.880,236.676 200.540 C 227.214 214.996,207.880 258.349,201.061 280.400 C 199.673 284.887,199.214 286.545,196.968 295.200 C 193.587 308.222,186.902 311.764,179.726 304.333 C 171.517 295.832,174.809 282.629,198.012 231.000 C 200.682 225.060,203.462 218.850,204.191 217.200 C 204.920 215.550,206.342 212.403,207.351 210.207 C 209.792 204.893,209.671 204.759,203.753 206.181 C 192.483 208.890,171.697 215.144,166.000 217.541 C 165.450 217.772,163.020 218.675,160.600 219.548 C 151.461 222.844,152.164 222.217,147.871 230.897 C 135.313 256.282,126.837 279.695,122.148 301.949 C 120.257 310.924,113.662 314.050,107.117 309.073 C 101.598 304.876,100.980 299.802,104.354 286.386 C 107.899 272.286,111.448 262.097,118.211 246.600 C 124.967 231.117,124.897 232.181,119.060 233.608 C 112.526 235.205,108.574 231.300,109.337 224.001 C 109.991 217.745,111.817 216.352,126.998 210.525 C 138.041 206.287,136.840 207.578,145.016 191.159 C 147.629 185.912,150.156 181.539,161.986 161.800 C 166.493 154.279,175.790 137.842,179.293 131.200 C 180.164 129.550,181.022 128.020,181.201 127.800 C 181.892 126.952,186.420 117.534,188.798 112.000 C 193.064 102.071,197.760 92.693,199.169 91.288 C 201.974 88.492,205.719 87.520,210.080 88.454 " stroke="none" fill="#040404" fill-rule="evenodd"></path><path id="path2" d="M204.531 88.418 C 199.349 89.442,196.935 93.061,188.798 112.000 C 186.420 117.534,181.892 126.952,181.201 127.800 C 181.022 128.020,180.164 129.550,179.293 131.200 C 175.790 137.842,166.493 154.279,161.986 161.800 C 150.156 181.539,147.629 185.912,145.016 191.159 C 136.840 207.578,138.041 206.287,126.998 210.525 C 111.817 216.352,109.991 217.745,109.337 224.001 C 108.574 231.300,112.526 235.205,119.060 233.608 C 124.897 232.181,124.967 231.117,118.211 246.600 C 111.448 262.097,107.899 272.286,104.354 286.386 C 100.980 299.802,101.598 304.876,107.117 309.073 C 113.662 314.050,120.257 310.924,122.148 301.949 C 126.837 279.695,135.313 256.282,147.871 230.897 C 152.164 222.217,151.461 222.844,160.600 219.548 C 163.020 218.675,165.450 217.772,166.000 217.541 C 171.697 215.144,192.483 208.890,203.753 206.181 C 209.671 204.759,209.792 204.893,207.351 210.207 C 206.342 212.403,204.920 215.550,204.191 217.200 C 203.462 218.850,200.682 225.060,198.012 231.000 C 174.809 282.629,171.517 295.832,179.726 304.333 C 186.902 311.764,193.587 308.222,196.968 295.200 C 199.214 286.545,199.673 284.887,201.061 280.400 C 207.880 258.349,227.214 214.996,236.676 200.540 C 237.763 198.880,239.873 198.452,249.000 198.036 C 258.907 197.584,263.566 194.364,264.277 187.476 C 264.876 181.674,262.148 179.520,252.864 178.466 C 247.444 177.851,246.906 179.282,261.086 156.600 C 266.610 147.764,274.041 136.238,277.203 131.600 C 289.244 113.941,291.313 101.996,283.047 97.867 C 276.674 94.684,273.745 96.472,266.800 107.783 C 264.710 111.187,258.846 120.594,253.769 128.686 C 243.729 144.691,244.225 143.887,239.760 151.400 C 234.399 160.419,230.011 168.000,226.537 174.238 C 221.813 182.723,223.480 181.610,210.000 185.270 C 195.756 189.137,188.179 191.243,175.877 194.754 C 166.616 197.397,166.462 197.426,166.125 196.549 C 165.751 195.575,167.961 191.595,177.980 175.200 C 197.781 142.796,210.273 119.122,214.389 106.200 C 218.433 93.503,214.520 86.443,204.531 88.418 M211.810 90.970 C 216.719 94.186,214.404 104.161,203.681 126.000 C 201.791 129.850,199.769 133.810,199.188 134.800 C 198.607 135.790,196.377 139.750,194.233 143.600 C 192.089 147.450,189.367 152.220,188.184 154.200 C 187.001 156.180,185.866 158.160,185.660 158.600 C 185.455 159.040,183.795 161.830,181.970 164.800 C 180.145 167.770,178.135 171.100,177.502 172.200 C 176.870 173.300,175.829 175.010,175.190 176.000 C 174.550 176.990,173.656 178.430,173.202 179.200 C 172.748 179.970,171.462 182.130,170.345 184.000 C 164.220 194.249,162.598 197.600,163.759 197.600 C 164.361 197.600,165.453 199.107,165.284 199.704 C 165.236 199.872,165.513 199.837,165.899 199.628 C 166.284 199.419,167.950 198.942,169.600 198.569 C 171.250 198.196,172.780 197.760,173.000 197.600 C 173.220 197.440,174.750 197.004,176.400 196.631 C 178.050 196.258,179.670 195.812,180.000 195.640 C 180.330 195.468,181.950 195.004,183.600 194.609 C 185.250 194.214,186.780 193.758,187.000 193.597 C 187.220 193.435,188.829 192.990,190.576 192.607 C 192.323 192.225,194.033 191.750,194.376 191.552 C 194.719 191.355,196.440 190.838,198.200 190.405 C 203.478 189.106,208.175 187.816,208.600 187.548 C 208.820 187.409,210.530 186.976,212.400 186.586 C 214.270 186.195,215.980 185.743,216.200 185.582 C 216.420 185.420,218.040 184.974,219.800 184.592 C 223.371 183.816,223.882 183.524,224.679 181.800 C 224.984 181.140,225.753 179.700,226.388 178.600 C 227.023 177.500,228.006 175.700,228.572 174.600 C 229.139 173.500,230.007 171.934,230.501 171.120 C 230.996 170.305,232.285 168.055,233.366 166.120 C 234.447 164.184,235.437 162.510,235.566 162.400 C 235.695 162.290,236.141 161.570,236.559 160.800 C 237.491 159.079,239.839 155.020,240.840 153.400 C 241.247 152.740,242.041 151.390,242.603 150.400 C 243.166 149.410,244.149 147.790,244.787 146.800 C 246.125 144.727,248.924 139.991,249.160 139.400 C 249.248 139.180,249.438 138.910,249.582 138.800 C 249.726 138.690,251.970 135.201,254.569 131.048 C 259.786 122.710,260.992 120.834,261.594 120.117 C 261.817 119.851,262.000 119.519,262.000 119.379 C 262.000 119.238,262.968 117.656,264.150 115.862 C 265.333 114.068,266.530 112.150,266.810 111.600 C 267.090 111.050,267.449 110.510,267.606 110.400 C 267.764 110.290,268.283 109.480,268.761 108.600 C 269.239 107.720,270.061 106.280,270.587 105.400 C 271.114 104.520,271.848 103.260,272.218 102.600 C 273.521 100.275,277.004 98.024,278.800 98.345 C 286.605 99.740,288.316 106.701,283.384 117.000 C 281.485 120.966,277.528 127.732,276.351 129.026 C 275.938 129.480,275.600 129.991,275.600 130.160 C 275.600 130.330,275.088 131.219,274.461 132.135 C 272.035 135.684,267.272 143.048,266.789 144.000 C 266.509 144.550,266.172 145.090,266.039 145.200 C 265.157 145.932,249.713 170.985,247.333 175.547 C 246.511 177.122,246.479 177.377,247.010 178.136 C 247.928 179.446,246.988 180.586,245.802 179.602 C 245.452 179.312,245.163 179.363,244.820 179.776 C 244.398 180.285,245.005 180.358,249.467 180.336 C 254.318 180.313,259.600 180.965,259.600 181.588 C 259.600 181.744,260.021 182.064,260.537 182.298 C 263.108 183.470,263.328 187.388,261.025 190.988 C 258.509 194.921,256.231 195.999,250.440 196.001 C 245.990 196.002,235.879 197.364,235.670 197.991 C 235.499 198.503,234.473 200.422,231.389 206.000 C 229.025 210.275,215.600 236.945,215.600 237.367 C 215.600 237.606,213.739 241.794,212.386 244.600 C 211.962 245.480,211.321 246.920,210.962 247.800 C 210.603 248.680,209.860 250.480,209.311 251.800 C 206.534 258.474,202.499 269.522,200.399 276.200 C 199.707 278.400,198.888 280.920,198.579 281.800 C 197.930 283.649,196.190 290.221,195.352 293.982 C 193.570 301.991,190.816 306.007,187.113 305.998 C 181.900 305.985,176.918 299.343,177.291 292.905 C 177.449 290.171,179.024 282.538,179.582 281.800 C 179.748 281.580,180.104 280.500,180.372 279.400 C 180.640 278.300,181.101 276.860,181.395 276.200 C 181.689 275.540,182.239 274.010,182.618 272.800 C 182.996 271.590,183.438 270.420,183.600 270.200 C 183.762 269.980,184.212 268.810,184.600 267.600 C 184.988 266.390,185.438 265.220,185.600 265.000 C 185.762 264.780,186.215 263.610,186.606 262.400 C 186.998 261.190,187.445 260.110,187.601 260.000 C 187.757 259.890,188.113 259.080,188.393 258.200 C 188.925 256.525,190.419 252.999,191.416 251.068 C 191.737 250.445,192.000 249.761,192.000 249.549 C 192.000 249.337,192.630 247.817,193.400 246.173 C 194.170 244.528,194.800 243.089,194.800 242.975 C 194.800 242.794,195.902 240.307,197.802 236.200 C 198.405 234.899,199.466 232.500,201.783 227.200 C 202.601 225.330,203.865 222.540,204.591 221.000 C 208.529 212.647,210.626 208.016,210.973 206.900 C 211.128 206.405,211.422 206.000,211.627 206.000 C 211.832 206.000,212.000 205.719,212.000 205.376 C 212.000 205.033,211.832 204.856,211.627 204.983 C 211.184 205.257,209.944 203.615,210.237 203.141 C 210.574 202.595,200.539 204.778,195.400 206.368 C 194.080 206.776,192.370 207.235,191.600 207.387 C 190.830 207.540,189.120 207.996,187.800 208.401 C 186.480 208.805,183.510 209.711,181.200 210.413 C 178.890 211.115,176.460 211.926,175.800 212.215 C 175.140 212.504,173.700 212.960,172.600 213.228 C 171.500 213.496,170.420 213.851,170.200 214.017 C 169.980 214.183,168.810 214.609,167.600 214.965 C 166.390 215.321,164.500 215.950,163.400 216.365 C 156.681 218.895,154.416 219.776,152.904 220.447 C 151.972 220.861,151.052 221.200,150.860 221.200 C 150.474 221.200,142.566 236.912,141.197 240.399 C 140.722 241.608,140.193 242.778,140.020 242.999 C 139.848 243.220,139.039 244.930,138.223 246.800 C 137.407 248.670,136.494 250.740,136.194 251.400 C 135.894 252.060,134.988 254.310,134.181 256.400 C 133.373 258.490,132.485 260.740,132.206 261.400 C 131.471 263.146,129.286 269.233,128.976 270.400 C 128.830 270.950,128.482 271.940,128.203 272.600 C 127.730 273.717,126.423 277.904,124.455 284.600 C 123.048 289.392,121.670 294.889,121.198 297.600 C 119.581 306.879,117.101 310.156,112.247 309.428 C 105.610 308.433,102.708 301.404,104.968 291.800 C 105.278 290.480,105.911 287.780,106.373 285.800 C 106.835 283.820,107.380 281.840,107.585 281.400 C 107.789 280.960,108.307 279.340,108.736 277.800 C 110.047 273.091,111.169 269.441,111.563 268.600 C 111.769 268.160,112.299 266.720,112.740 265.400 C 113.995 261.646,115.278 258.238,115.601 257.800 C 115.763 257.580,116.126 256.680,116.407 255.800 C 116.688 254.920,117.251 253.573,117.659 252.806 C 118.066 252.039,118.400 251.280,118.400 251.118 C 118.400 250.832,119.465 248.380,121.438 244.125 C 121.967 242.983,122.400 241.949,122.400 241.826 C 122.400 241.619,124.083 237.802,125.410 235.000 C 126.539 232.617,126.805 231.623,126.258 231.833 C 125.978 231.940,125.418 231.662,125.013 231.214 C 124.128 230.236,123.452 230.203,121.150 231.024 C 114.240 233.490,111.114 231.813,111.034 225.600 C 110.965 220.327,115.549 215.951,123.000 214.176 C 123.660 214.018,124.380 213.758,124.600 213.598 C 124.820 213.437,125.990 212.988,127.200 212.600 C 128.410 212.212,129.580 211.761,129.800 211.599 C 130.020 211.437,130.920 211.078,131.800 210.802 C 132.680 210.526,134.350 209.873,135.512 209.350 C 136.673 208.828,137.777 208.400,137.963 208.400 C 138.150 208.400,138.527 207.860,138.800 207.200 C 139.073 206.540,139.416 206.000,139.560 206.000 C 139.705 206.000,140.173 205.100,140.600 204.000 C 141.027 202.900,141.480 202.000,141.608 202.000 C 141.735 202.000,142.066 201.372,142.344 200.604 C 142.622 199.837,143.070 198.982,143.341 198.704 C 143.892 198.140,147.200 191.387,147.200 190.826 C 147.200 190.628,147.355 190.407,147.544 190.333 C 147.733 190.260,148.279 189.390,148.756 188.400 C 149.701 186.443,151.093 183.913,152.606 181.400 C 153.136 180.520,153.961 179.080,154.439 178.200 C 154.917 177.320,155.439 176.510,155.600 176.400 C 155.761 176.290,156.276 175.480,156.744 174.600 C 157.212 173.720,158.045 172.280,158.594 171.400 C 159.144 170.520,159.991 169.035,160.476 168.100 C 160.962 167.165,161.504 166.400,161.680 166.400 C 161.856 166.400,162.000 166.202,162.000 165.960 C 162.000 165.547,162.891 163.978,166.407 158.200 C 167.210 156.880,168.752 154.216,169.833 152.280 C 170.915 150.345,172.160 148.152,172.600 147.408 C 174.426 144.319,180.400 133.546,180.400 133.341 C 180.400 133.220,181.382 131.370,182.582 129.232 C 184.921 125.065,188.800 117.449,188.800 117.024 C 188.800 116.883,189.350 115.559,190.021 114.083 C 190.693 112.607,191.403 111.040,191.600 110.600 C 191.796 110.160,192.596 108.401,193.378 106.691 C 194.160 104.981,194.800 103.480,194.800 103.354 C 194.800 102.355,199.682 93.541,200.884 92.370 C 203.354 89.964,209.142 89.222,211.810 90.970 M161.788 200.020 C 161.407 200.635,161.928 201.032,162.442 200.518 C 162.729 200.231,162.736 200.007,162.462 199.839 C 162.239 199.700,161.935 199.782,161.788 200.020 M212.217 202.372 C 211.944 202.814,212.575 203.292,212.944 202.922 C 213.325 202.542,213.254 202.000,212.824 202.000 C 212.617 202.000,212.344 202.168,212.217 202.372 " stroke="none" fill="#585858" fill-rule="evenodd"></path><path id="path3" d="M206.100 90.287 C 206.705 90.378,207.695 90.378,208.300 90.287 C 208.905 90.195,208.410 90.120,207.200 90.120 C 205.990 90.120,205.495 90.195,206.100 90.287 M202.744 91.224 L 201.800 92.047 203.000 91.345 C 204.579 90.420,204.603 90.400,204.111 90.400 C 203.879 90.400,203.264 90.771,202.744 91.224 M210.600 90.850 C 211.040 91.084,211.915 91.844,212.544 92.538 C 213.304 93.377,213.540 93.509,213.246 92.931 C 212.740 91.933,210.906 90.394,210.246 90.412 C 210.001 90.419,210.160 90.616,210.600 90.850 M198.796 95.300 C 198.360 96.015,198.002 96.765,198.001 96.967 C 198.000 97.423,198.056 97.348,199.114 95.500 C 200.166 93.663,199.897 93.494,198.796 95.300 M275.178 99.811 C 273.717 100.883,272.641 102.086,271.967 103.400 L 271.556 104.200 272.190 103.400 C 273.772 101.406,275.466 99.848,276.584 99.361 C 277.253 99.070,277.520 98.824,277.178 98.816 C 276.835 98.807,275.935 99.255,275.178 99.811 M280.469 99.191 C 281.056 99.369,281.776 99.637,282.069 99.787 C 282.361 99.937,282.251 99.776,281.824 99.430 C 281.396 99.083,280.676 98.815,280.224 98.834 C 279.563 98.862,279.611 98.933,280.469 99.191 M283.594 101.003 C 285.187 102.921,285.321 103.045,284.886 102.196 C 284.659 101.753,284.052 101.034,283.537 100.598 C 282.633 99.834,282.635 99.848,283.594 101.003 M212.833 103.033 C 212.575 104.059,212.439 104.972,212.531 105.064 C 212.622 105.156,212.909 104.392,213.167 103.367 C 213.425 102.341,213.561 101.428,213.469 101.336 C 213.378 101.244,213.091 102.008,212.833 103.033 M194.865 103.417 C 194.195 104.888,194.323 105.202,195.047 103.865 C 195.386 103.240,195.588 102.654,195.496 102.563 C 195.405 102.471,195.121 102.856,194.865 103.417 M193.072 107.419 C 192.132 109.389,192.264 109.724,193.247 107.862 C 193.693 107.016,193.987 106.254,193.901 106.167 C 193.814 106.081,193.441 106.644,193.072 107.419 M269.000 108.400 C 268.659 109.060,268.469 109.600,268.579 109.600 C 268.689 109.600,269.059 109.060,269.400 108.400 C 269.741 107.740,269.931 107.200,269.821 107.200 C 269.711 107.200,269.341 107.740,269.000 108.400 M210.650 109.591 C 209.747 111.847,209.887 112.183,210.837 110.042 C 211.266 109.075,211.545 108.212,211.458 108.125 C 211.371 108.038,211.008 108.698,210.650 109.591 M266.614 112.235 C 266.241 112.804,266.005 113.338,266.089 113.422 C 266.173 113.507,266.558 113.041,266.944 112.388 C 267.806 110.928,267.548 110.809,266.614 112.235 M190.865 112.617 C 190.195 114.088,190.323 114.402,191.047 113.065 C 191.386 112.440,191.588 111.854,191.496 111.763 C 191.405 111.671,191.121 112.056,190.865 112.617 M284.715 112.610 C 284.592 113.045,284.369 113.760,284.220 114.200 C 284.071 114.640,284.242 114.494,284.600 113.876 C 284.958 113.258,285.181 112.542,285.095 112.286 C 285.010 112.030,284.839 112.176,284.715 112.610 M208.867 113.980 C 208.633 114.651,208.527 115.200,208.631 115.200 C 208.901 115.200,209.656 113.122,209.457 112.924 C 209.367 112.833,209.101 113.308,208.867 113.980 M188.865 117.017 C 188.195 118.488,188.323 118.802,189.047 117.465 C 189.386 116.840,189.588 116.254,189.496 116.163 C 189.405 116.071,189.121 116.456,188.865 117.017 M282.481 117.809 C 282.002 118.794,281.694 119.600,281.797 119.600 C 282.068 119.600,283.684 116.351,283.503 116.170 C 283.419 116.086,282.959 116.824,282.481 117.809 M263.353 117.300 C 261.976 119.636,261.886 119.835,262.587 119.000 C 263.400 118.032,264.100 116.800,263.838 116.800 C 263.733 116.800,263.515 117.025,263.353 117.300 M280.446 121.604 C 279.952 122.482,279.636 123.200,279.742 123.200 C 280.049 123.200,281.710 120.377,281.517 120.183 C 281.421 120.087,280.939 120.727,280.446 121.604 M205.078 122.205 C 204.712 122.972,204.495 123.600,204.596 123.600 C 204.870 123.600,206.084 121.151,205.901 120.968 C 205.814 120.881,205.444 121.438,205.078 122.205 M201.078 130.205 C 200.712 130.972,200.495 131.600,200.596 131.600 C 200.870 131.600,202.084 129.151,201.901 128.968 C 201.814 128.881,201.444 129.438,201.078 130.205 M180.600 133.200 C 180.259 133.860,180.069 134.400,180.179 134.400 C 180.289 134.400,180.659 133.860,181.000 133.200 C 181.341 132.540,181.531 132.000,181.421 132.000 C 181.311 132.000,180.941 132.540,180.600 133.200 M253.753 132.500 C 252.376 134.836,252.286 135.035,252.987 134.200 C 253.800 133.232,254.500 132.000,254.238 132.000 C 254.133 132.000,253.915 132.225,253.753 132.500 M273.353 132.900 C 271.976 135.236,271.886 135.435,272.587 134.600 C 273.400 133.632,274.100 132.400,273.838 132.400 C 273.733 132.400,273.515 132.625,273.353 132.900 M177.617 138.703 C 176.449 140.846,175.038 143.410,174.481 144.400 C 173.924 145.390,173.659 146.020,173.892 145.800 C 174.498 145.227,180.080 135.147,179.894 134.961 C 179.809 134.876,178.784 136.560,177.617 138.703 M194.200 142.800 C 193.859 143.460,193.669 144.000,193.779 144.000 C 193.889 144.000,194.259 143.460,194.600 142.800 C 194.941 142.140,195.131 141.600,195.021 141.600 C 194.911 141.600,194.541 142.140,194.200 142.800 M247.353 142.900 C 245.976 145.236,245.886 145.435,246.587 144.600 C 247.400 143.632,248.100 142.400,247.838 142.400 C 247.733 142.400,247.515 142.625,247.353 142.900 M266.911 142.900 C 266.129 143.911,265.863 144.532,266.336 144.240 C 266.810 143.947,267.757 142.400,267.463 142.400 C 267.372 142.400,267.124 142.625,266.911 142.900 M192.600 145.600 C 192.259 146.260,192.069 146.800,192.179 146.800 C 192.289 146.800,192.659 146.260,193.000 145.600 C 193.341 144.940,193.531 144.400,193.421 144.400 C 193.311 144.400,192.941 144.940,192.600 145.600 M243.000 150.000 C 242.659 150.660,242.469 151.200,242.579 151.200 C 242.689 151.200,243.059 150.660,243.400 150.000 C 243.741 149.340,243.931 148.800,243.821 148.800 C 243.711 148.800,243.341 149.340,243.000 150.000 M241.302 152.900 C 241.084 153.175,240.692 153.850,240.431 154.400 C 239.878 155.563,240.880 154.490,241.643 153.100 C 242.089 152.290,241.881 152.168,241.302 152.900 M169.014 153.835 C 168.641 154.404,168.405 154.938,168.489 155.022 C 168.573 155.107,168.958 154.641,169.344 153.988 C 170.206 152.528,169.948 152.409,169.014 153.835 M186.653 156.100 L 185.933 157.400 186.758 156.400 C 187.489 155.513,187.814 154.800,187.486 154.800 C 187.424 154.800,187.049 155.385,186.653 156.100 M258.953 155.300 C 257.576 157.636,257.486 157.835,258.187 157.000 C 259.000 156.032,259.700 154.800,259.438 154.800 C 259.333 154.800,259.115 155.025,258.953 155.300 M167.753 156.100 C 166.376 158.436,166.286 158.635,166.987 157.800 C 167.800 156.832,168.500 155.600,168.238 155.600 C 168.133 155.600,167.915 155.825,167.753 156.100 M239.000 156.800 C 238.659 157.460,238.469 158.000,238.579 158.000 C 238.689 158.000,239.059 157.460,239.400 156.800 C 239.741 156.140,239.931 155.600,239.821 155.600 C 239.711 155.600,239.341 156.140,239.000 156.800 M237.508 159.300 C 236.633 160.649,235.848 162.256,236.287 161.800 C 236.848 161.217,238.498 158.400,238.279 158.400 C 238.176 158.400,237.829 158.805,237.508 159.300 M183.353 161.700 C 181.976 164.036,181.886 164.235,182.587 163.400 C 183.400 162.432,184.100 161.200,183.838 161.200 C 183.733 161.200,183.515 161.425,183.353 161.700 M163.302 163.700 C 163.084 163.975,162.692 164.650,162.431 165.200 C 161.878 166.363,162.880 165.290,163.643 163.900 C 164.089 163.090,163.881 162.968,163.302 163.700 M252.600 165.600 C 252.259 166.260,252.069 166.800,252.179 166.800 C 252.289 166.800,252.659 166.260,253.000 165.600 C 253.341 164.940,253.531 164.400,253.421 164.400 C 253.311 164.400,252.941 164.940,252.600 165.600 M180.953 165.700 C 179.576 168.036,179.486 168.235,180.187 167.400 C 181.000 166.432,181.700 165.200,181.438 165.200 C 181.333 165.200,181.115 165.425,180.953 165.700 M233.302 166.500 C 232.736 167.215,231.940 168.800,232.146 168.800 C 232.242 168.800,232.693 168.170,233.147 167.400 C 233.973 166.001,234.049 165.557,233.302 166.500 M251.353 167.700 C 249.976 170.036,249.886 170.235,250.587 169.400 C 251.400 168.432,252.100 167.200,251.838 167.200 C 251.733 167.200,251.515 167.425,251.353 167.700 M230.600 171.200 C 230.259 171.860,230.069 172.400,230.179 172.400 C 230.289 172.400,230.659 171.860,231.000 171.200 C 231.341 170.540,231.531 170.000,231.421 170.000 C 231.311 170.000,230.941 170.540,230.600 171.200 M228.800 174.400 C 228.351 175.280,228.074 176.000,228.184 176.000 C 228.294 176.000,228.751 175.280,229.200 174.400 C 229.649 173.520,229.926 172.800,229.816 172.800 C 229.706 172.800,229.249 173.520,228.800 174.400 M157.353 173.700 C 155.976 176.036,155.886 176.235,156.587 175.400 C 157.400 174.432,158.100 173.200,157.838 173.200 C 157.733 173.200,157.515 173.425,157.353 173.700 M175.353 174.900 C 173.976 177.236,173.886 177.435,174.587 176.600 C 175.400 175.632,176.100 174.400,175.838 174.400 C 175.733 174.400,175.515 174.625,175.353 174.900 M245.834 177.189 C 245.021 178.735,244.440 180.000,244.541 180.000 C 244.826 180.000,247.660 174.726,247.474 174.541 C 247.384 174.451,246.646 175.643,245.834 177.189 M155.000 177.600 C 154.659 178.260,154.469 178.800,154.579 178.800 C 154.689 178.800,155.059 178.260,155.400 177.600 C 155.741 176.940,155.931 176.400,155.821 176.400 C 155.711 176.400,155.341 176.940,155.000 177.600 M227.000 177.600 C 226.659 178.260,226.469 178.800,226.579 178.800 C 226.689 178.800,227.059 178.260,227.400 177.600 C 227.741 176.940,227.931 176.400,227.821 176.400 C 227.711 176.400,227.341 176.940,227.000 177.600 M173.353 178.100 C 171.976 180.436,171.886 180.635,172.587 179.800 C 173.400 178.832,174.100 177.600,173.838 177.600 C 173.733 177.600,173.515 177.825,173.353 178.100 M245.905 180.683 C 246.402 180.779,247.122 180.775,247.505 180.675 C 247.887 180.575,247.480 180.496,246.600 180.501 C 245.720 180.505,245.407 180.587,245.905 180.683 M257.584 181.409 C 258.565 181.715,259.429 181.904,259.504 181.829 C 259.709 181.624,257.177 180.796,256.440 180.827 C 256.088 180.841,256.603 181.104,257.584 181.409 M218.600 185.015 C 217.023 185.561,217.020 185.565,218.400 185.332 C 220.032 185.057,221.700 184.448,220.800 184.456 C 220.470 184.459,219.480 184.711,218.600 185.015 M168.600 186.000 C 168.259 186.660,168.069 187.200,168.179 187.200 C 168.289 187.200,168.659 186.660,169.000 186.000 C 169.341 185.340,169.531 184.800,169.421 184.800 C 169.311 184.800,168.941 185.340,168.600 186.000 M148.780 188.439 C 148.320 189.340,148.013 190.146,148.097 190.230 C 148.181 190.314,148.641 189.576,149.119 188.591 C 150.209 186.347,149.915 186.215,148.780 188.439 M210.600 187.200 C 210.096 187.417,210.022 187.544,210.400 187.544 C 210.730 187.544,211.360 187.389,211.800 187.200 C 212.304 186.983,212.378 186.856,212.000 186.856 C 211.670 186.856,211.040 187.011,210.600 187.200 M167.000 188.800 C 166.659 189.460,166.469 190.000,166.579 190.000 C 166.689 190.000,167.059 189.460,167.400 188.800 C 167.741 188.140,167.931 187.600,167.821 187.600 C 167.711 187.600,167.341 188.140,167.000 188.800 M204.056 188.859 C 203.317 189.072,202.790 189.323,202.885 189.418 C 202.980 189.513,203.854 189.340,204.829 189.035 C 206.818 188.411,206.145 188.258,204.056 188.859 M261.200 189.877 C 261.200 190.103,260.443 191.168,259.519 192.244 C 258.594 193.320,258.342 193.750,258.958 193.200 C 260.415 191.900,261.753 190.020,261.444 189.710 C 261.310 189.576,261.200 189.651,261.200 189.877 M196.856 190.859 C 196.117 191.072,195.590 191.323,195.685 191.418 C 195.780 191.513,196.654 191.340,197.629 191.035 C 199.618 190.411,198.945 190.258,196.856 190.859 M146.800 192.400 C 146.351 193.280,146.074 194.000,146.184 194.000 C 146.294 194.000,146.751 193.280,147.200 192.400 C 147.649 191.520,147.926 190.800,147.816 190.800 C 147.706 190.800,147.249 191.520,146.800 192.400 M189.600 193.000 C 188.830 193.297,188.470 193.539,188.800 193.539 C 189.130 193.539,190.030 193.297,190.800 193.000 C 191.570 192.703,191.930 192.461,191.600 192.461 C 191.270 192.461,190.370 192.703,189.600 193.000 M145.078 195.805 C 144.712 196.572,144.495 197.200,144.596 197.200 C 144.870 197.200,146.084 194.751,145.901 194.568 C 145.814 194.481,145.444 195.038,145.078 195.805 M181.800 195.200 C 181.296 195.417,181.222 195.544,181.600 195.544 C 181.930 195.544,182.560 195.389,183.000 195.200 C 183.504 194.983,183.578 194.856,183.200 194.856 C 182.870 194.856,182.240 195.011,181.800 195.200 M162.556 197.443 C 162.224 198.237,162.054 198.987,162.177 199.110 C 162.299 199.233,162.400 199.235,162.400 199.116 C 162.400 198.996,162.672 198.246,163.005 197.449 C 163.338 196.652,163.509 196.000,163.385 196.000 C 163.261 196.000,162.888 196.649,162.556 197.443 M242.500 196.276 C 242.885 196.376,243.515 196.376,243.900 196.276 C 244.285 196.175,243.970 196.093,243.200 196.093 C 242.430 196.093,242.115 196.175,242.500 196.276 M175.600 196.888 C 174.830 197.116,174.389 197.373,174.620 197.458 C 174.851 197.544,175.751 197.353,176.620 197.035 C 178.431 196.372,177.695 196.266,175.600 196.888 M237.800 196.800 C 236.137 197.223,237.774 197.242,239.800 196.823 C 241.145 196.545,241.209 196.492,240.200 196.493 C 239.540 196.494,238.460 196.632,237.800 196.800 M142.200 201.200 C 141.424 202.740,140.880 204.000,140.990 204.000 C 141.100 204.000,141.824 202.740,142.600 201.200 C 143.376 199.660,143.920 198.400,143.810 198.400 C 143.700 198.400,142.976 199.660,142.200 201.200 M163.039 198.694 C 162.558 199.176,162.820 199.600,163.600 199.600 C 164.040 199.600,164.400 199.439,164.400 199.243 C 164.400 198.793,163.360 198.374,163.039 198.694 M167.800 199.200 C 167.296 199.417,167.222 199.544,167.600 199.544 C 167.930 199.544,168.560 199.389,169.000 199.200 C 169.504 198.983,169.578 198.856,169.200 198.856 C 168.870 198.856,168.240 199.011,167.800 199.200 M210.600 202.267 C 210.160 202.363,208.841 202.628,207.668 202.856 C 206.496 203.083,205.608 203.341,205.695 203.429 C 205.906 203.639,211.581 202.552,211.892 202.242 C 212.150 201.984,211.876 201.989,210.600 202.267 M199.600 204.800 C 198.796 205.057,198.757 205.123,199.400 205.132 C 199.840 205.138,200.560 204.989,201.000 204.800 C 202.019 204.362,200.968 204.362,199.600 204.800 M230.200 207.200 C 229.859 207.860,229.669 208.400,229.779 208.400 C 229.889 208.400,230.259 207.860,230.600 207.200 C 230.941 206.540,231.131 206.000,231.021 206.000 C 230.911 206.000,230.541 206.540,230.200 207.200 M191.400 207.015 C 189.823 207.561,189.820 207.565,191.200 207.332 C 192.832 207.057,194.500 206.448,193.600 206.456 C 193.270 206.459,192.280 206.711,191.400 207.015 M210.926 207.500 C 210.789 207.885,210.601 208.380,210.509 208.600 C 210.416 208.820,210.624 208.651,210.970 208.224 C 211.599 207.448,211.789 206.800,211.387 206.800 C 211.271 206.800,211.063 207.115,210.926 207.500 M137.200 208.800 C 136.430 209.222,135.944 209.574,136.120 209.583 C 136.544 209.605,138.800 208.432,138.800 208.190 C 138.800 207.928,138.777 207.937,137.200 208.800 M185.000 208.800 C 184.496 209.017,184.422 209.144,184.800 209.144 C 185.130 209.144,185.760 208.989,186.200 208.800 C 186.704 208.583,186.778 208.456,186.400 208.456 C 186.070 208.456,185.440 208.611,185.000 208.800 M131.600 211.000 C 131.050 211.314,130.780 211.572,131.000 211.572 C 131.220 211.572,131.850 211.314,132.400 211.000 C 132.950 210.686,133.220 210.428,133.000 210.428 C 132.780 210.428,132.150 210.686,131.600 211.000 M125.800 213.229 C 124.920 213.652,124.650 213.886,125.200 213.749 C 126.333 213.467,128.412 212.425,127.800 212.446 C 127.580 212.453,126.680 212.806,125.800 213.229 M226.400 214.400 C 225.951 215.280,225.674 216.000,225.784 216.000 C 225.894 216.000,226.351 215.280,226.800 214.400 C 227.249 213.520,227.526 212.800,227.416 212.800 C 227.306 212.800,226.849 213.520,226.400 214.400 M121.300 214.812 C 119.961 215.351,120.211 215.624,121.600 215.140 C 122.260 214.910,122.800 214.649,122.800 214.561 C 122.800 214.324,122.313 214.405,121.300 214.812 M166.200 215.014 C 165.200 215.496,165.166 215.551,166.000 215.348 C 167.133 215.071,168.407 214.421,167.800 214.430 C 167.580 214.433,166.860 214.696,166.200 215.014 M207.072 215.819 C 206.132 217.789,206.264 218.124,207.247 216.262 C 207.693 215.416,207.987 214.654,207.901 214.567 C 207.814 214.481,207.441 215.044,207.072 215.819 M116.100 217.246 C 114.295 218.402,114.463 218.668,116.300 217.563 C 118.160 216.445,118.218 216.398,117.767 216.407 C 117.565 216.410,116.815 216.788,116.100 217.246 M160.600 217.014 C 159.600 217.496,159.566 217.551,160.400 217.348 C 161.533 217.071,162.807 216.421,162.200 216.430 C 161.980 216.433,161.260 216.696,160.600 217.014 M224.678 217.805 C 224.312 218.572,224.095 219.200,224.196 219.200 C 224.470 219.200,225.684 216.751,225.501 216.568 C 225.414 216.481,225.044 217.038,224.678 217.805 M113.329 219.300 C 112.884 219.795,112.376 220.470,112.201 220.800 C 111.863 221.437,111.955 221.350,113.576 219.500 C 114.106 218.895,114.449 218.400,114.339 218.400 C 114.229 218.400,113.775 218.805,113.329 219.300 M155.200 219.000 C 154.650 219.314,154.380 219.572,154.600 219.572 C 154.820 219.572,155.450 219.314,156.000 219.000 C 156.550 218.686,156.820 218.428,156.600 218.428 C 156.380 218.428,155.750 218.686,155.200 219.000 M151.100 220.629 C 149.549 221.470,149.725 221.761,151.300 220.959 C 152.808 220.193,153.075 219.994,152.567 220.016 C 152.365 220.025,151.705 220.301,151.100 220.629 M222.678 221.805 C 222.312 222.572,222.095 223.200,222.196 223.200 C 222.470 223.200,223.684 220.751,223.501 220.568 C 223.414 220.481,223.044 221.038,222.678 221.805 M111.328 225.200 C 111.328 226.630,111.401 227.215,111.489 226.500 C 111.578 225.785,111.578 224.615,111.489 223.900 C 111.401 223.185,111.328 223.770,111.328 225.200 M203.072 224.619 C 202.132 226.589,202.264 226.924,203.247 225.062 C 203.693 224.216,203.987 223.454,203.901 223.367 C 203.814 223.281,203.441 223.844,203.072 224.619 M220.481 226.209 C 220.002 227.194,219.694 228.000,219.797 228.000 C 220.068 228.000,221.684 224.751,221.503 224.570 C 221.419 224.486,220.959 225.224,220.481 226.209 M201.072 229.019 C 200.132 230.989,200.264 231.324,201.247 229.462 C 201.693 228.616,201.987 227.854,201.901 227.767 C 201.814 227.681,201.441 228.244,201.072 229.019 M125.400 228.778 C 124.520 229.195,123.941 229.550,124.113 229.568 C 124.583 229.616,127.200 228.474,127.200 228.220 C 127.200 227.923,127.219 227.917,125.400 228.778 M218.672 229.819 C 217.732 231.789,217.864 232.124,218.847 230.262 C 219.293 229.416,219.587 228.654,219.501 228.567 C 219.414 228.481,219.041 229.044,218.672 229.819 M125.644 229.747 C 125.287 230.177,125.280 230.402,125.615 230.610 C 126.268 231.013,127.077 230.117,126.543 229.583 C 126.254 229.294,125.978 229.344,125.644 229.747 M127.045 230.963 C 126.912 231.492,126.684 232.257,126.538 232.663 C 126.073 233.955,126.750 233.017,127.393 231.479 C 127.733 230.666,127.848 230.000,127.649 230.000 C 127.450 230.000,127.178 230.433,127.045 230.963 M120.000 231.000 C 119.450 231.314,119.180 231.572,119.400 231.572 C 119.620 231.572,120.250 231.314,120.800 231.000 C 121.350 230.686,121.620 230.428,121.400 230.428 C 121.180 230.428,120.550 230.686,120.000 231.000 M199.265 233.017 C 198.595 234.488,198.723 234.802,199.447 233.465 C 199.786 232.840,199.988 232.254,199.896 232.163 C 199.805 232.071,199.521 232.456,199.265 233.017 M125.265 235.417 C 124.595 236.888,124.723 237.202,125.447 235.865 C 125.786 235.240,125.988 234.654,125.896 234.563 C 125.805 234.471,125.521 234.856,125.265 235.417 M140.865 239.817 C 140.195 241.288,140.323 241.602,141.047 240.265 C 141.386 239.640,141.588 239.054,141.496 238.963 C 141.405 238.871,141.121 239.256,140.865 239.817 M122.865 241.017 C 122.195 242.488,122.323 242.802,123.047 241.465 C 123.386 240.840,123.588 240.254,123.496 240.163 C 123.405 240.071,123.121 240.456,122.865 241.017 M194.865 243.017 C 194.195 244.488,194.323 244.802,195.047 243.465 C 195.386 242.840,195.588 242.254,195.496 242.163 C 195.405 242.071,195.121 242.456,194.865 243.017 M138.672 244.619 C 137.732 246.589,137.864 246.924,138.847 245.062 C 139.293 244.216,139.587 243.454,139.501 243.367 C 139.414 243.281,139.041 243.844,138.672 244.619 M121.265 244.617 C 120.595 246.088,120.723 246.402,121.447 245.065 C 121.786 244.440,121.988 243.854,121.896 243.763 C 121.805 243.671,121.521 244.056,121.265 244.617 M193.265 246.617 C 192.595 248.088,192.723 248.402,193.447 247.065 C 193.786 246.440,193.988 245.854,193.896 245.763 C 193.805 245.671,193.521 246.056,193.265 246.617 M210.865 247.017 C 210.195 248.488,210.323 248.802,211.047 247.465 C 211.386 246.840,211.588 246.254,211.496 246.163 C 211.405 246.071,211.121 246.456,210.865 247.017 M136.865 248.617 C 136.195 250.088,136.323 250.402,137.047 249.065 C 137.386 248.440,137.588 247.854,137.496 247.763 C 137.405 247.671,137.121 248.056,136.865 248.617 M118.865 250.217 C 118.195 251.688,118.323 252.002,119.047 250.665 C 119.386 250.040,119.588 249.454,119.496 249.363 C 119.405 249.271,119.121 249.656,118.865 250.217 M190.865 252.217 C 190.195 253.688,190.323 254.002,191.047 252.665 C 191.386 252.040,191.588 251.454,191.496 251.363 C 191.405 251.271,191.121 251.656,190.865 252.217 M134.865 253.417 C 134.195 254.888,134.323 255.202,135.047 253.865 C 135.386 253.240,135.588 252.654,135.496 252.563 C 135.405 252.471,135.121 252.856,134.865 253.417 M116.779 255.055 C 116.558 255.636,116.452 256.185,116.543 256.276 C 116.633 256.367,116.899 255.892,117.133 255.220 C 117.653 253.728,117.339 253.582,116.779 255.055 M206.650 257.191 C 205.747 259.447,205.887 259.783,206.837 257.642 C 207.266 256.675,207.545 255.812,207.458 255.725 C 207.371 255.638,207.008 256.298,206.650 257.191 M188.865 257.017 C 188.195 258.488,188.323 258.802,189.047 257.465 C 189.386 256.840,189.588 256.254,189.496 256.163 C 189.405 256.071,189.121 256.456,188.865 257.017 M132.667 258.867 C 132.305 259.788,132.074 260.607,132.154 260.688 C 132.234 260.768,132.600 260.083,132.967 259.167 C 133.333 258.250,133.564 257.431,133.479 257.346 C 133.394 257.261,133.029 257.945,132.667 258.867 M115.050 259.191 C 114.147 261.447,114.287 261.783,115.237 259.642 C 115.666 258.675,115.945 257.812,115.858 257.725 C 115.771 257.638,115.408 258.298,115.050 259.191 M187.050 261.591 C 186.147 263.847,186.287 264.183,187.237 262.042 C 187.666 261.075,187.945 260.212,187.858 260.125 C 187.771 260.038,187.408 260.698,187.050 261.591 M204.650 262.391 C 203.747 264.647,203.887 264.983,204.837 262.842 C 205.266 261.875,205.545 261.012,205.458 260.925 C 205.371 260.838,205.008 261.498,204.650 262.391 M130.844 263.644 C 130.598 264.351,130.466 265.000,130.552 265.085 C 130.638 265.171,130.909 264.662,131.156 263.956 C 131.402 263.249,131.534 262.600,131.448 262.515 C 131.362 262.429,131.091 262.938,130.844 263.644 M202.444 268.444 C 202.198 269.151,202.066 269.800,202.152 269.885 C 202.238 269.971,202.509 269.462,202.756 268.756 C 203.002 268.049,203.134 267.400,203.048 267.315 C 202.962 267.229,202.691 267.738,202.444 268.444 M128.844 269.244 C 128.598 269.951,128.466 270.600,128.552 270.685 C 128.638 270.771,128.909 270.262,129.156 269.556 C 129.402 268.849,129.534 268.200,129.448 268.115 C 129.362 268.029,129.091 268.538,128.844 269.244 M110.846 270.839 C 110.601 271.543,110.413 272.318,110.428 272.560 C 110.444 272.802,110.714 272.296,111.030 271.435 C 111.345 270.574,111.533 269.800,111.448 269.715 C 111.362 269.629,111.092 270.135,110.846 270.839 M182.844 272.444 C 182.598 273.151,182.466 273.800,182.552 273.885 C 182.638 273.971,182.909 273.462,183.156 272.756 C 183.402 272.049,183.534 271.400,183.448 271.315 C 183.362 271.229,183.091 271.738,182.844 272.444 M200.844 273.244 C 200.598 273.951,200.466 274.600,200.552 274.685 C 200.638 274.771,200.909 274.262,201.156 273.556 C 201.402 272.849,201.534 272.200,201.448 272.115 C 201.362 272.029,201.091 272.538,200.844 273.244 M108.840 277.440 C 108.610 278.273,108.494 279.027,108.582 279.115 C 108.670 279.203,108.930 278.593,109.160 277.760 C 109.390 276.927,109.506 276.173,109.418 276.085 C 109.330 275.997,109.070 276.607,108.840 277.440 M180.846 278.039 C 180.601 278.743,180.413 279.518,180.428 279.760 C 180.444 280.002,180.714 279.496,181.030 278.635 C 181.345 277.774,181.533 277.000,181.448 276.915 C 181.362 276.829,181.092 277.335,180.846 278.039 M198.846 279.239 C 198.601 279.943,198.413 280.718,198.428 280.960 C 198.444 281.202,198.714 280.696,199.030 279.835 C 199.345 278.974,199.533 278.200,199.448 278.115 C 199.362 278.029,199.092 278.535,198.846 279.239 M124.800 281.600 C 124.551 282.524,124.426 283.359,124.521 283.455 C 124.617 283.550,124.890 282.863,125.127 281.927 C 125.365 280.991,125.490 280.157,125.406 280.073 C 125.322 279.988,125.049 280.676,124.800 281.600 M107.029 283.829 C 106.881 284.415,106.838 284.972,106.932 285.066 C 107.027 285.160,107.224 284.758,107.371 284.171 C 107.519 283.585,107.562 283.028,107.468 282.934 C 107.373 282.840,107.176 283.242,107.029 283.829 M179.029 283.829 C 178.881 284.415,178.838 284.972,178.932 285.066 C 179.027 285.160,179.224 284.758,179.371 284.171 C 179.519 283.585,179.562 283.028,179.468 282.934 C 179.373 282.840,179.176 283.242,179.029 283.829 M196.800 286.400 C 196.551 287.324,196.426 288.159,196.521 288.255 C 196.617 288.350,196.890 287.663,197.127 286.727 C 197.365 285.791,197.490 284.957,197.406 284.873 C 197.322 284.788,197.049 285.476,196.800 286.400 M122.800 288.800 C 122.551 289.724,122.426 290.559,122.521 290.655 C 122.617 290.750,122.890 290.063,123.127 289.127 C 123.365 288.191,123.490 287.357,123.406 287.273 C 123.322 287.188,123.049 287.876,122.800 288.800 M105.000 292.000 C 104.848 292.691,104.807 293.341,104.909 293.442 C 105.011 293.544,105.209 293.053,105.350 292.350 C 105.683 290.683,105.360 290.360,105.000 292.000 M194.650 294.850 C 194.317 296.517,194.640 296.840,195.000 295.200 C 195.152 294.509,195.193 293.859,195.091 293.758 C 194.989 293.656,194.791 294.147,194.650 294.850 M120.622 297.822 C 120.472 298.625,120.428 299.362,120.526 299.460 C 120.624 299.557,120.827 298.981,120.978 298.178 C 121.128 297.375,121.172 296.638,121.074 296.540 C 120.976 296.443,120.773 297.019,120.622 297.822 M104.114 298.600 C 104.117 299.700,104.195 300.103,104.287 299.495 C 104.379 298.886,104.377 297.986,104.282 297.495 C 104.187 297.003,104.111 297.500,104.114 298.600 M192.678 301.005 C 192.312 301.772,192.095 302.400,192.196 302.400 C 192.470 302.400,193.684 299.951,193.501 299.768 C 193.414 299.681,193.044 300.238,192.678 301.005 M104.432 301.520 C 104.396 302.098,105.507 304.400,105.821 304.400 C 105.931 304.400,105.771 303.905,105.465 303.300 C 105.160 302.695,104.809 301.930,104.686 301.600 C 104.536 301.197,104.453 301.171,104.432 301.520 M181.200 302.948 C 182.594 304.462,184.700 305.833,185.067 305.466 C 185.173 305.360,184.861 305.146,184.372 304.991 C 183.883 304.836,182.655 303.971,181.642 303.069 L 179.800 301.428 181.200 302.948 M190.306 304.211 C 189.484 304.975,188.954 305.600,189.127 305.600 C 189.301 305.600,190.054 304.970,190.800 304.200 C 192.541 302.403,192.243 302.410,190.306 304.211 M106.801 306.001 C 107.271 306.661,108.048 307.403,108.528 307.650 C 109.082 307.934,108.823 307.497,107.819 306.449 C 105.945 304.495,105.629 304.356,106.801 306.001 M115.600 308.448 C 114.830 308.861,114.495 309.199,114.856 309.199 C 115.216 309.200,115.936 308.846,116.456 308.413 C 117.600 307.460,117.431 307.467,115.600 308.448 M110.176 308.570 C 110.604 308.917,111.324 309.185,111.776 309.166 C 112.437 309.138,112.389 309.067,111.531 308.809 C 110.944 308.631,110.224 308.363,109.931 308.213 C 109.639 308.063,109.749 308.224,110.176 308.570 " stroke="none" fill="#848484" fill-rule="evenodd"></path><path id="path4" d="M200.200 132.400 C 199.859 133.060,199.669 133.600,199.779 133.600 C 199.889 133.600,200.259 133.060,200.600 132.400 C 200.941 131.740,201.131 131.200,201.021 131.200 C 200.911 131.200,200.541 131.740,200.200 132.400 M245.895 177.769 C 245.171 179.287,245.681 180.251,246.949 179.764 C 247.744 179.459,247.762 179.174,247.044 178.193 C 246.739 177.775,246.578 177.201,246.687 176.917 C 247.103 175.833,246.519 176.462,245.895 177.769 M262.493 186.400 C 262.493 187.170,262.575 187.485,262.676 187.100 C 262.776 186.715,262.776 186.085,262.676 185.700 C 262.575 185.315,262.493 185.630,262.493 186.400 M258.400 193.668 C 257.352 194.620,257.101 194.965,257.800 194.495 C 258.904 193.751,260.738 191.977,260.362 192.017 C 260.273 192.026,259.390 192.770,258.400 193.668 M162.479 198.586 C 162.192 199.217,162.171 199.658,162.422 199.813 C 162.637 199.946,162.710 200.222,162.584 200.426 C 162.451 200.641,162.795 200.630,163.398 200.401 C 163.972 200.183,165.011 199.904,165.708 199.781 C 166.405 199.658,167.071 199.451,167.188 199.320 C 167.305 199.189,166.989 199.183,166.487 199.307 C 165.813 199.473,165.408 199.279,164.941 198.566 C 164.127 197.324,163.050 197.332,162.479 198.586 M164.400 199.243 C 164.400 199.439,164.040 199.600,163.600 199.600 C 162.820 199.600,162.558 199.176,163.039 198.694 C 163.360 198.374,164.400 198.793,164.400 199.243 M211.094 202.632 C 210.179 203.128,210.059 203.362,210.396 203.993 C 211.170 205.438,211.887 205.347,212.757 203.694 C 213.138 202.972,213.129 202.810,212.717 202.894 C 212.433 202.952,212.245 202.775,212.300 202.500 C 212.421 201.895,212.461 201.891,211.094 202.632 M110.909 225.200 C 110.909 226.190,110.987 226.595,111.082 226.100 C 111.178 225.605,111.178 224.795,111.082 224.300 C 110.987 223.805,110.909 224.210,110.909 225.200 M125.800 229.010 C 124.920 229.519,123.840 229.953,123.400 229.974 C 122.960 229.995,122.330 230.189,122.000 230.406 C 121.575 230.684,121.783 230.725,122.717 230.546 C 123.715 230.354,124.249 230.486,124.917 231.087 C 126.041 232.097,126.841 232.554,126.746 232.130 C 126.639 231.648,127.277 230.243,127.745 229.930 C 128.010 229.754,127.986 229.466,127.678 229.094 C 127.419 228.782,127.325 228.408,127.470 228.263 C 127.880 227.854,127.529 228.011,125.800 229.010 M126.515 230.445 C 125.840 231.120,125.037 230.478,125.644 229.747 C 125.978 229.344,126.254 229.294,126.543 229.583 C 126.832 229.872,126.824 230.136,126.515 230.445 M177.293 291.600 C 177.293 292.370,177.375 292.685,177.476 292.300 C 177.576 291.915,177.576 291.285,177.476 290.900 C 177.375 290.515,177.293 290.830,177.293 291.600 M177.293 295.200 C 177.293 295.970,177.375 296.285,177.476 295.900 C 177.576 295.515,177.576 294.885,177.476 294.500 C 177.375 294.115,177.293 294.430,177.293 295.200 M117.179 307.822 C 116.651 308.384,116.488 308.741,116.818 308.614 C 117.339 308.415,118.634 306.800,118.273 306.800 C 118.200 306.800,117.707 307.260,117.179 307.822 " stroke="none" fill="#7c7c7c" fill-rule="evenodd"></path></g></svg>