<svg enable-background="new 0 0 595.28 841.89" height="344.191202" viewBox="0 0 508.66965 603.36132" width="290.536189" xmlns="http://www.w3.org/2000/svg"><path d="m428.00147 173.26471s-54.44419 28.30291-83.79242 27.85149c-32.04155-.49285-90.55828-33.20755-90.55828-33.20755l-.52043 339.57386s61.6652-45.8423 85.87422-75.52037c25.90179-31.75328 47.25606-68.30675 61.41308-107.12108 17.55304-48.12528 27.58383-151.57635 27.58383-151.57635z" fill="#fff" fill-rule="evenodd"/><path d="m75.466696 173.28068s55.473394 28.30016 85.376404 27.84878c32.64726-.4928 92.27017-33.20432 92.27017-33.20432l.53028 339.5409s-62.83092-45.83785-87.49756-75.51304c-26.39144-31.7502-48.14939-68.30012-62.57402-107.11069-17.884854-48.1206-28.105274-151.56163-28.105274-151.56163z" fill="#e33b30" fill-rule="evenodd"/><path d="m13.492032 281.48029 68.164824-26.50853s20.684554 87.42712 43.928434 124.96883c32.04882 51.76276 127.24101 131.02794 127.24101 131.02794s84.28982-64.42439 113.60804-107.54894c30.89126-45.43835 61.34834-152.99216 61.34834-152.99216l69.6796 29.53808s-22.99902 75.71793-42.41367 109.82111c-26.06161 45.77903-51.49831 79.54666-83.31256 114.36543-18.34295 20.07524-40.37807 32.99712-61.34834 48.47276-18.98858 14.0132-58.3188 40.14151-58.3188 40.14151s-77.98132-44.53843-109.71259-75.61706c-31.29384-30.65019-55.658744-68.26708-76.806834-106.62717-22.393114-40.61842-52.057454-129.0418-52.057454-129.0418z" fill-rule="evenodd" stroke="#000"/><g fill="none" stroke-miterlimit="10"><path d="m431.1072 176.70727c-14.533 182.69499-76.058 258.10099-175.68 332.99899" stroke="#f49712" stroke-width="14"/><path d="m257.3902 508.45626c-1.063.219-1.3 1.867-3.101.42" stroke="#f49712" stroke-width="14"/><path d="m81.107206 170.70727s-.447 0-1 0" stroke="#0f0"/><path d="m74.107206 176.70727c15 182.69499 78.499994 258.10099 181.319994 332.99899" stroke="#f49712" stroke-width="14"/><path d="m74.107206 176.70727c-.917-4.167 92.249994 57.25001 179.249994-8" stroke="#f49712" stroke-width="14"/><path d="m430.4012 176.70727c.905-4.167-91.115 57.25001-177.044-8" stroke="#f49712" stroke-width="14"/><path d="m253.6322 169.55927c2.536.311-.899-.852-1.221-.188" stroke="#f49712" stroke-width="14"/><path d="m84.285194 252.97926-78.67799 29.72802" stroke="#f49712" stroke-width="14"/><path d="m424.10721 251.95726 75.00003 27.00002" stroke="#f49712" stroke-width="14"/><path d="m502.0242 272.49926c-58.833 177.75-113.75 224.875-248.539 324.207" stroke="#f49712" stroke-width="14"/><path d="m261.3572 597.33126c-117.25-69.125-178.749994-105.293-254.7499972-322.499" stroke="#f49712" stroke-width="14"/></g><path d="m228.77926 277.31466c-20.2601-57.5614-19.8814-59.83356-19.8814-59.83356s.86034-2.85359 2.08221-3.29669c1.43396-.52003 4.35558 1.40322 4.35558 1.40322s2.06938 19.7106 7.76321 18.55598c6.65354-1.34924-2.08281-20.26011-2.08281-20.26011s1.63777-5.52868 3.97628-5.86975c2.66295-.38839 4.35497 4.54433 4.35497 4.54433s.54109 14.81669 5.68041 14.39036c6.62479-.54956-1.58426-10.30291 4.16562-19.50273 0 0 1.03723-1.28211 1.70413-1.13607 1.88223.41216 3.02954 4.92301 3.02954 4.92301s-.294 13.13682 4.35498 13.25428c5.61266.14181 4.35497-13.63298 4.35497-13.63298s2.23507-3.53325 3.97628-3.40824c2.00762.14413 3.97629 4.54433 3.97629 4.54433s-2.31591 10.91478 1.51477 11.55016c6.18181 1.02536 8.33126-16.85187 8.33126-16.85187s2.03554-1.06641 3.02954-.75739c1.36642.42481 2.84021 3.21889 2.84021 3.21889s-7.10027 15.18303-1.70413 17.23057c6.3386 2.40515 11.92885-16.47318 11.92885-16.47318s1.68423-.89195 2.46151-.56804c1.43889.59963 2.4615 3.97628 2.4615 3.97628s-8.51586 14.81024-3.21889 17.41991c3.04683 1.50109 6.81649-7.57387 6.81649-7.57387s2.48658-3.24 3.59758-2.27216c1.24918 1.08822 1.51477 4.73367 1.51477 4.73367l-21.01748 51.881z" fill="#271221" fill-rule="evenodd" stroke="#271221"/><path d="m253.99879 328.73153c2.47735 0 4.47174 3.97151 4.47174 8.90474v35.61898c0 4.93322-1.99439 8.90473-4.47174 8.90473s-4.47174-3.97151-4.47174-8.90473v-35.61898c0-4.93323 1.99439-8.90474 4.47174-8.90474zm32.61079-27.77274a32.411914 33.003997 0 0 1 -32.41191 33.004 32.411914 33.003997 0 0 1 -32.41192-33.004 32.411914 33.003997 0 0 1 32.41192-33.00398 32.411914 33.003997 0 0 1 32.41191 33.00398z" fill="#20583d" fill-rule="evenodd" stroke="#20583d" stroke-width="7.57337"/><path d="m296.37605 431.8216-.75739 11.3608s-24.58363-16.96092-36.92261-25.37247c-8.75089-5.96552-16.70971-11.81178-25.94051-16.09447-10.954-5.08218-22.47958-9.66748-34.4611-11.17145-5.89865-.74042-11.89034 1.79553-17.79859 1.13608-4.44604-.49624-8.8224-1.89348-12.87558-3.78694-2.47414-1.1558-6.81648-4.54432-6.81648-4.54432s10.6082-1.66754 13.25427-5.6804c1.2508-1.89689.95844-4.75636 0-6.81648-2.64525-5.68582-13.8548-10.77931-13.8548-10.77931s-15.51267-2.31698-20.80911-7.43604c-2.47633-2.39339-4.34152-10.94405-4.34152-10.94405l8.14191-3.78693s4.62076-4.36301 4.40092-7.84165c-.34566-5.46962-2.53279-13.5766-7.95257-14.39036-6.55286-.98389-24.10718-11.53351-26.36513-13.74387 0 0 6.5346-5.15373 6.57561-8.82087.08-7.15713-9.65957-10.90513-12.44536-17.49833-1.49847-3.54647-2.08282-11.36081-2.08282-11.36081s9.06205.9173 11.69913-2.03455c6.1846-6.92283 6.24726-22.89306 1.66049-27.79959-4.64161-4.96519-12.41288-16.1771-12.41288-16.1771s15.87663 7.48994 21.39618 12.30753c7.2906 6.36342 13.63296 21.20684 13.63296 21.20684s9.13874 3.26091 13.06493 1.32543c3.66048-1.8045 6.43779-10.41407 6.43779-10.41407s4.15648 15.39118 5.5295 23.23228c.94555 5.39988.76805 12.15784 1.85502 16.34117 1.56617 6.02754 3.72453 11.49518 8.70995 13.25427 3.50102 1.23533 10.60342-3.40824 10.60342-3.40824l2.08281-5.86974s5.38876 18.84986 7.06409 28.4894c1.78734 10.28408-3.27245 17.72971.69912 25.09572 2.30177 4.26907 10.51167 12.96965 11.92885 8.33126 2.78767-9.12395 4.16563-13.63297 4.16563-13.63297s7.92176 21.48244 10.9168 32.51659c1.6518 6.08546 4.61064 14.73861 9.36375 21.29143 4.48792 6.18722 10.69214 11.03015 16.86993 15.53105 11.27481 8.21439 24.83255 12.84812 36.41764 20.6188 3.29855 2.2125 9.36575 7.36636 9.36575 7.36636z" fill="#22553f" fill-rule="evenodd" stroke="#f49712" stroke-width="5"/><path d="m223.27944 386.69873s-5.7003-11.61833-7.74712-17.29361c-1.88057-5.21431-4.03506-15.37515-4.03506-15.37515l-6.42664 10.17551s-6.60724-3.5457-9.50589-5.8891c-3.75591-3.03645-10.04181-10.44528-10.04181-10.44528s-4.47136-10.08637-5.21082-15.48062c-.80347-5.86115.92639-17.72369.92639-17.72369l-9.63996 10.44329s-6.27088-9.59943-9.18298-15.35938c-2.83533-5.60813-7.95473-18.38049-7.95473-18.38049l4.01665-24.36768-7.76552 23.0288-16.06661-34.81096 3.4811 22.49323-15.53105-6.15886 20.08325 20.6188 8.56886 15.79883-17.40549-6.69442 23.83213 16.86993 19.81548 30.52655-25.70657-4.5522 31.32988 15.26327z" fill="#f49712" fill-rule="evenodd" stroke="#22553f"/><path d="m212.03282 436.77296 1.80946 12.82637s15.81874-19.63473 24.43265-26.75076c6.3011-5.2054 13.36532-9.47269 20.52868-13.40794 6.04292-3.31972 13.92806-6.05555 18.8345-8.54975 8.93609-4.54269 17.59096-10.14274 27.31323-12.5855.0439-.011.0881-.022.13237-.033 11.49872-2.83777 24.14333 1.85469 35.21416-2.10926 6.43784-2.30509 16.60215-12.04995 16.60215-12.04995s-9.45061 2.13942-10.52172 2.13942c-.48677 0-4.65528.0383-5.61947-1.66036-.58173-1.02485.23399-2.43764.87792-3.4246 6.18074-9.4733 18.21451-13.465 26.69106-20.95453 6.93752-6.12971 15.52643-21.58553 15.52643-21.58553s-3.14944 1.86893-12.87558 7.95257c-4.24134 2.65293-6.60013-1.76581-7.57387-4.54432-.95772-2.7328 3.02955-8.14191 3.02955-8.14191s18.05525-9.74949 25.0128-17.06023c4.99382-5.24734 11.34178-18.53695 11.34178-18.53695l-15.71578 9.84603s-5.89313-2.14492-6.24845-4.73367c-1.25383-9.13498 12.65675-13.75624 16.73306-22.02689 4.09723-8.31308 7.31398-26.82456 7.31398-26.82456l-10.03538 9.65669-9.84603-2.08282s.0744-9.69723 1.13608-14.39034c1.7047-7.53537 10.88429-18.04107 12.87558-22.91097 0 0-17.98073 12.85011-27.07658 19.12403-3.06931 2.11707-5.62535 5.4995-9.27799 6.24844-3.96528.81304-5.88616-1.12371-6.81649-3.50291-1.44314-3.69068-3.59758-12.02352-3.59758-12.02352s-5.91106 16.54779-7.19518 25.18311c-1.09562 7.36769.73599 15.49456-1.70412 22.53226-2.01667 5.81642-4.57737 12.00015-9.85948 14.50683-2.17682 1.03303-5.08668 1.71522-7.20075-.63301-3.24207-3.60116-4.90399-13.68448-4.90399-13.68448s-5.81979 11.93685-7.19518 18.36663c-2.4717 11.55487.34991 23.77145-1.70412 35.40783-.8502 4.81649-.7729 10.68147-4.35497 14.01166-2.04072 1.89722-8.13622 5.72103-8.54358 2.96458-.71927-4.8672-1.11311-11.86387-1.11311-11.86387l-8.70995 17.79859s-2.56215 14.15029-5.49105 20.63879c-2.62154 5.80759-5.80061 13.28554-10.41407 18.74533-3.91259 4.63035-14.20101 11.3608-14.20101 11.3608s-19.82771 10.92922-28.21266 17.41991c-7.47365 5.78526-19.3973 19.34172-19.3973 19.34172z" fill="#22553f" fill-rule="evenodd" stroke="#f49712" stroke-width="5"/><path d="m290.22362 385.09206 8.0333-12.31773 1.33888-18.4766 5.62332 12.58551s7.98465-7.15064 10.87739-11.58934c2.79121-4.2829 5.99254-14.11723 5.99254-14.11723l4.01665-46.86091 6.69442 29.7232s10.51292-12.4292 14.5906-19.42612c3.99359-6.85265 9.5093-21.81148 9.5093-21.81148l-4.28443-23.29657 8.30108 15.79882 10.17552-27.04544-.80333 20.88657s2.63308 1.50745 4.0873 1.52644c4.03361.0527 11.44375-3.93643 11.44375-3.93643l-18.20882 14.19217-14.72772 23.0288s15.79883 3.74887 14.19217 3.74887-17.94104 6.69441-17.94104 6.69441l-17.40549 31.32988 27.04545-8.30108-28.91989 13.65661s-9.25751 14.94589-15.79883 20.61881c-6.88374 5.9699-23.83212 13.38884-23.83212 13.38884z" fill="#f49712" fill-rule="evenodd" stroke="#22553f"/><g fill="#f49712" transform="translate(-52.530578 -69.86058)"><path d="m85.149547 359.51273 8.056423-2.83859q-.861681 4.49699.03279 7.03568.520256 1.47657 1.624508 2.0485 1.130157.56278 2.47721.0881 1.0362-.36509 1.69643-1.38398.66937-.99298 1.371342-3.13316 1.6756-5.16235 3.69577-7.9417 2.05519-2.76259 5.34511-3.92176 4.48155-1.57902 8.30008.24939 3.8185 1.82877 5.39753 6.31031 1.16829 3.31583.89356 7.08184l-7.74556 2.72906q.68477-4.17257-.0819-6.34858-.51112-1.45068-1.53765-2.04997-.99151-.58253-2.23495-.14439-2.17601.7667-3.5178 5.6367-.78465 2.89734-2.87219 6.31196-2.05252 3.43142-5.88644 4.78226-4.481548 1.57902-8.539109-.51496-4.031656-2.1031-5.729333-6.92142-1.159166-3.28992-.745784-7.07567z"/><path d="m107.7435 397.80632-8.130298 3.11517q-1.73847-2.15753-2.48532-4.10675-2.584512-6.74532.85644-12.88746 3.476418-6.12632 11.734948-9.29062 7.66865-2.93828 14.26575-.61287 6.62274 2.31559 9.09915 8.77879.96305 2.51347 1.10203 4.87208l-8.15594 3.125q-.11117-2.51633-.86785-4.4912-1.1596-3.02642-4.69604-3.96562-3.53645-.93919-7.81962.70192-4.61656 1.76887-6.54306 4.80122-1.89102 3.04817-.60368 6.40801.62894 1.64145 2.24349 3.55233z"/><path d="m135.71363 392.12297 3.17975 7.69073-33.88486 14.00982-3.17976-7.69072z"/><path d="m141.60176 406.27966 6.92955 15.34441-7.10899 3.21041-3.50434-7.7598-6.15779 2.78086 3.04086 6.73352-6.93376 3.13129-3.04086-6.73352-6.0827 2.74695 3.52695 7.80988-7.13402 3.22173-6.95216-15.39447z"/><path d="m150.08256 425.44335 3.98747 7.3984-13.6 19.34227 3.33826-2.14241 15.1353-8.15737 3.94837 7.32588-32.27736 17.3963-4.05263-7.5193 13.41412-18.99248-3.90926 2.35656-14.31326 7.71431-3.94838-7.32587z"/><path d="m164.49372 451.0338 10.72991 16.70931-7.04888 4.52645-3.10174-4.83022-23.8044 15.28603-4.55613-7.0951 23.80442-15.28603-3.07205-4.78399z"/><path d="m178.63418 473.4587 4.27298 7.14141-31.4646 18.82651-4.27298-7.1414z"/><path d="m168.90521 528.40822-4.51213-7.38195 4.49541-4.38948-4.58375-7.49912-5.98513 1.95226-4.42619-7.24134 36.35617-10.82694 4.87025 7.96782zm4.77682-16.56846q6.00951-5.86218 11.82643-10.51218l-.0573-.0937q-7.00709 3.12416-14.73425 5.75493l2.96512 4.85099z"/><path d="m197.87132 552.98572-6.79681 5.44145q-2.31255-1.52621-3.61713-3.15573-4.51452-5.63899-3.10577-12.53692 1.44736-6.89365 8.35137-12.42093 6.41087-5.13247 13.40273-4.9248 7.01331.19046 11.339 5.59365 1.68222 2.10122 2.53232 4.30569l-6.81825 5.45862q-.87161-2.36317-2.19335-4.01413-2.02552-2.53005-5.68006-2.34858-3.65454.18147-7.23519 3.0481-3.85938 3.08979-4.77179 6.56456-.8738 3.47905 1.37487 6.28783 1.0986 1.37222 3.21806 2.70119z"/><path d="m219.95683 535.48832 7.07366 6.6306q4.28828 4.01968 4.70689 8.5531.4186 4.53341-3.13149 8.32072-1.82201 1.94376-4.47313 2.88445-2.63234.92066-5.29986.15191l-6.45835 16.60892-6.41238-6.01074 6.51093-16.7855-.1002-.0939-11.42041 12.18352-6.07171-5.69141 25.07605-26.75165zm1.22557 10.8614-5.95439 6.35227q4.1029 3.69534 6.67625.95003 1.74688-1.86359 1.5564-3.54797-.17044-1.66559-2.27826-3.75433z"/><path d="m239.22431 552.89099 13.09966 10.57677-4.90016 6.06902-6.62463-5.34877-4.24451 5.25696 5.74847 4.64136-4.77939 5.91942-5.74846-4.64135-4.19275 5.19285 6.66736 5.38328-4.91741 6.09039-13.14241-10.61127z"/><path d="m235.00901 595.50129 5.12299-6.83511q1.7811 4.2182 3.93493 5.83251 1.25273.93894 2.48866.80123 1.25239-.1597 2.10896-1.30255.6589-.87911.64205-2.0931.005-1.1975-.59981-3.36712-1.4738-5.22353-1.33756-8.6568.1747-3.43878 2.26673-6.22997 2.84976-3.80216 7.04086-4.40222 4.1911-.60007 7.99325 2.24969 2.81317 2.1085 4.67637 5.39282l-4.9253 6.57137q-1.74803-3.85016-3.59417-5.23386-1.23076-.92246-2.41726-.85068-1.14805.0663-1.93874 1.12121-1.3837 1.84614.20533 6.64117.9567 2.84516 1.11726 6.84413.199 3.99347-2.23894 7.24619-2.84976 3.80216-7.38695 4.31445-4.52072.49031-8.6086-2.5736-2.79119-2.09202-4.55006-5.46976z"/><path d="m275.29248 625.55031-7.06055-5.0001 2.39662-5.80796-7.17264-5.07948-4.72772 4.15714-6.92607-4.90486 29.12564-24.30415 7.62092 5.39694zm-2.15437-17.10819q3.20607-7.7589 6.71391-14.32808l-.0897-.0635q-5.20384 5.63736-11.26405 11.10579l4.63979 3.28578z"/><path d="m295.77053 595.05416 16.44027 11.13773-4.69849 6.93539-4.75244-3.21963-15.86703 23.42114-6.98087-4.72929 15.86703-23.42114-4.70696-3.18882z"/><path d="m336.5621 580.03974 6.40291-5.85929 14.2831 8.89535q4.19719 2.67443 6.84087 4.87176l.0811-.0742q-1.71716-2.48674-2.65038-4.23886l-9.4366-17.79801 6.56501-6.00763 16.62845 34.48561-5.69372 5.21033-33.0207-19.48509z"/><path d="m361.72674 556.86602 6.05328-5.71104 25.16251 26.67033-6.05326 5.71105z"/><path d="m371.35995 547.78945 14.24618-13.83394 5.83591 6.0098-4.1182 3.99902 19.7081 20.29539-6.0492 5.87416-19.70811-20.29539-4.07879 3.96076z"/><path d="m432.11589 539.00225-6.05829 6.17654-5.35346-3.28887-6.15446 6.27458 3.35326 5.3281-5.94289 6.0589-19.36839-32.61686 6.53911-6.66674zm-17.23319-.5909q-7.15102-4.39799-13.07949-8.90491l-.0769.0785q4.73905 6.03333 9.17527 12.88533l3.98115-4.05886z"/><path d="m450.4229 505.48019 6.57999 5.70174q-1.08324 2.55026-2.45022 4.12779-4.73045 5.45911-11.76939 5.31991-7.0417-.17793-13.72548-5.96959-6.20636-5.37798-7.26545-12.29228-1.07984-6.9323 3.45276-12.16308 1.76268-2.03419 3.77726-3.26861l6.60075 5.71972q-2.16679 1.28425-3.55175 2.88255-2.12241 2.44933-1.2836 6.01092.83881 3.5616 4.30524 6.56535 3.73628 3.23759 7.31872 3.50712 3.57967.23079 5.9359-2.48838 1.15114-1.32845 2.07527-3.65316z"/><path d="m468.24788 497.9555q-3.89104 5.38876-10.05255 5.24218-6.18377-.16266-13.97743-5.79021-7.19244-5.19343-9.15861-10.91559-1.97235-5.7605 1.6936-10.83751 3.90713-5.41103 9.99563-5.35103 6.10459.0377 13.58651 5.44018 7.48191 5.40245 9.58169 11.22108 2.09358 5.78028-1.66884 10.9909zm-24.71576-17.47381q-2.63691 3.65189 5.93612 9.8422 5.52236 3.98751 8.0298 4.40908 2.52352.3993 3.79374-1.35984 1.36669-1.89276.24203-4.22933-1.1086-2.35884-6.49736-6.24989-8.70663-6.28679-11.50433-2.41222z"/><path d="m446.06363 463.56709 3.97438-7.31179 24.75875 13.45781 3.14803-5.79152 7.45659 4.05308-7.12241 13.10332z"/><path d="m498.39988 439.51194-3.55809 7.88622-6.15901-1.24208-3.61457 8.0114 4.98429 3.84578-3.49032 7.73601-29.42395-23.94212 3.84048-8.51212zm-16.38079 5.38528q-8.22872-1.66364-15.34734-3.85092l-.0452.10011q6.52823 4.03014 13.05436 8.93315l2.33817-5.18237z"/><path d="m464.04946 426.12477 7.28818-18.47199 7.79246 3.07455-2.10682 5.33975 26.31556 10.38287-3.0947 7.84357-26.31556-10.38288-2.08666 5.28867z"/><path d="m472.63366 404.19788 2.85495-8.05063 24.33312 8.62911q1.7085.60587 3.03937.0579 1.30497-.55718 1.84658-2.08448.55997-1.57906-.18009-2.86145-.73086-1.30829-2.59467-1.96924l-24.04837-8.52813 2.83659-7.99888 22.67639 8.04161q4.63366 1.6432 6.99792 3.85129 2.36426 2.20808 2.83992 5.05779.45894 2.81465-1.04656 7.06001-2.22154 6.26448-6.34026 7.68892-4.1187 1.42443-11.75517-1.28364l-21.45974-7.61015z"/><path d="m482.73556 375.26626 2.96152-9.23205q1.79539-5.59678 5.71253-7.91691 3.91716-2.32014 8.8601-.7345 2.53685.81379 4.52248 2.80644 1.95947 1.98426 2.40745 4.72396l17.77446-1.27852-2.68467 8.369-17.95655 1.30664-.042.13077 15.9011 5.10087-2.54204 7.92439-34.91443-11.20009zm9.28955-5.75989 8.29055 2.65951q1.5817-5.29034-2.00129-6.43971-2.43224-.78024-3.87267.11339-1.43205.86747-2.41659 3.66683z"/><path d="m473.1873 233.27391c-10.90403-17.88532-72.49751-52.013-111.60978-61.84065-32.87283-8.25991-81.96395-8.27436-114.7537-.0338-37.21928 9.35379-79.1467 31.32509-104.64058 54.83499-5.7447 5.29762-12.56477 9.65997-15.15571 9.69413-5.92941.0781-59.28354-52.92885-59.28354-58.89785 0-9.95411 59.11065-53.98086 94.91593-70.69522 104.56916-48.814179 229.54973-39.769995 323.74083 23.4274 27.15734 18.22118 54.11783 41.61562 54.11783 46.9597 0 5.35475-54.87094 61.94367-60.06315 61.94367-2.18933 0-5.45998-2.42657-7.26813-5.39239z" fill="#000" stroke="#f49712" stroke-width="10.57451"/></g><g fill="#f49712" transform="translate(-52.530578 -75.21611)"><path d="m114.38072 170.41498 20.10924-14.36305 6.0591 8.48314-5.81304 4.15198 20.46189 28.64801-8.53878 6.09884-20.46189-28.64801-5.75741 4.11224z"/><path d="m142.52733 150.29573 8.85192-5.37581 8.78227 14.46107 7.85864-4.77259-8.78227-14.46107 8.85193-5.37581 23.68551 39.00107-8.85193 5.37581-9.84678-16.21393-7.85865 4.77259 9.84679 16.21392-8.85193 5.37581z"/><path d="m182.96809 127.6625 9.51286-4.09408 18.03827 41.91308-9.51285 4.09408z"/><path d="m219.66846 160.79487-3.45639-10.05225q5.58798 1.11469 8.75557.0255 1.84237-.63349 2.56448-2.00223.711-1.40107.13308-3.08184-.44455-1.29289-1.70623-2.1241-1.22937-.84233-3.88601-1.73605-6.40826-2.13382-9.84787-4.67394-3.4184-2.58356-4.82985-6.6885-1.92268-5.59177.38905-10.32631 2.31173-4.73454 7.9035-6.65722 4.13726-1.42257 8.82114-1.04517l3.32302 9.66438q-5.18594-.89149-7.90102.0421-1.81005.62238-2.5655 1.89416-.73424 1.22834-.20078 2.77982.93356 2.71507 6.98118 4.43074 3.59807 1.00375 7.82758 3.6337 4.25072 2.58653 5.89556 7.37024 1.92269 5.59176-.72135 10.62128-2.65514 4.99719-8.6671 7.06436-4.10494 1.41145-8.81206.86133z"/><path d="m235.69193 108.34736 24.10605-5.43849 2.29424 10.16922-6.96842 1.57212 7.74777 34.34195-10.2359 2.30929-7.74777-34.34195-6.90173 1.55708z"/><path d="m272.17169 101.14834 10.3145-.93109 3.15281 34.92634 8.16991-.7375.94953 10.51876-18.48441 1.66859z"/><path d="m303.74898 99.376276 20.93287.898604-.41632 9.6981-10.58596-.45443-.36061 8.40046 9.18587.39433-.40605 9.45907-9.18588-.39433-.35622 8.29802 10.65425.45736-.41778 9.73225-21.00117-.90154z"/><path d="m334.48743 101.22151 24.42967 3.72421-1.57107 10.30574-7.06196-1.07657-5.30559 34.80299-10.37331-1.58137 5.30558-34.80299-6.99439-1.06627z"/><path d="m371.91666 156.20409q-7.98045-2.1748-10.50599-9.41688-2.51655-7.27506.62882-18.81704 2.90273-10.65161 8.70844-15.44616 5.84767-4.81855 13.36645-2.76957 8.01344 2.18379 10.6079 9.30295 2.62744 7.12815-.39212 18.20846-3.01956 11.0803-8.87919 16.07272-5.81767 4.96843-13.53431 2.86552zm9.54068-36.43961q-5.40824-1.47383-8.86815 11.22235-2.22872 8.17832-1.62256 11.28388.63913 3.11454 3.24432 3.8245 2.80306.76387 5.03293-1.56882 2.26285-2.32371 4.43765-10.30417 3.51383-12.89404-2.22419-14.45774z"/><path d="m412.14684 118.17507 8.95264 4.33345-6.69612 27.32726.12306.0596 16.78708-22.44283 8.12199 3.93138-6.99281 26.84189.12306.0596 16.89917-22.04681 9.19877 4.45259-29.72509 36.30611-8.42964-4.08029 4.9831-20.258q.81331-3.32771 1.73773-6.33581l-.12306-.0596q-3.07732 4.3963-4.1901 5.83228l-12.49863 15.93666-8.30658-4.02073 10.03543-45.83672z"/><path d="m470.56342 150.42129 8.25852 6.41772-5.75856 28.85583 2.72323-4.11706 13.12907-16.89488 8.17756 6.35481-27.99891 36.02981-8.39346-6.52259 5.72279-28.36418-3.2656 4.64789-12.41599 15.97727-8.17756-6.35481z"/></g><g stroke="#f49712" transform="matrix(2.3934246 0 0 2.3934246 43.790212 -2.360491)"><path d="m61.97062 70.146369v6.191407q-1.875.605468-3.359375.605468-5.136719 0-8.339844-3.847656-3.183594-3.867187-3.183594-10.15625 0-5.839844 3.222657-9.628906 3.222656-3.808594 8.144531-3.808594 1.914062 0 3.515625.507813v6.210937q-1.699219-.566406-3.203125-.566406-2.304688 0-3.828125 2.109375-1.523438 2.109375-1.523438 5.371094 0 3.515625 1.523438 5.566406 1.542969 2.03125 4.101562 2.03125 1.25 0 2.929688-.585938z"/><path d="m115.94768 50.224494h5.91797v26.074219h-5.91797z"/></g></svg>