<?xml version="1.0" standalone="no"?>
<!DOCTYPE svg PUBLIC "-//W3C//DTD SVG 20010904//EN"
 "http://www.w3.org/TR/2001/REC-SVG-20010904/DTD/svg10.dtd">
<svg version="1.0" xmlns="http://www.w3.org/2000/svg"
 width="1335.000000pt" height="642.000000pt" viewBox="0 0 1335.000000 642.000000"
 preserveAspectRatio="xMidYMid meet">

<g transform="translate(0.000000,642.000000) scale(0.100000,-0.100000)"
fill="#000000" stroke="none">
<path d="M4694 5696 c-11 -28 1 -51 25 -51 32 0 49 28 32 49 -17 20 -50 21
-57 2z"/>
<path d="M9274 5699 c-42 -12 -100 -78 -114 -128 -24 -91 41 -192 133 -206 59
-9 108 0 141 26 39 31 31 42 -10 14 -39 -26 -91 -32 -125 -15 -26 15 -47 58
-54 116 -22 166 126 252 206 120 l19 -31 0 59 c0 50 -2 57 -14 47 -11 -9 -25
-10 -53 -2 -45 13 -86 13 -129 0z"/>
<path d="M3680 5687 c24 -12 25 -16 28 -132 3 -140 -1 -163 -31 -175 -14 -6
28 -8 123 -7 l145 2 6 45 c8 55 5 60 -15 23 -18 -35 -54 -53 -106 -53 l-40 0
0 70 c0 52 3 70 13 70 17 0 43 -29 50 -55 2 -11 5 18 5 65 0 47 -3 76 -5 65
-7 -26 -33 -55 -50 -55 -9 0 -13 17 -13 65 l0 65 35 0 c49 0 82 -18 94 -51 15
-42 21 -36 21 21 l0 50 -142 0 c-122 0 -139 -2 -118 -13z"/>
<path d="M4533 5689 c15 -9 17 -27 17 -154 0 -127 -2 -145 -17 -154 -14 -8 -2
-10 46 -11 51 0 62 3 53 12 -8 8 -12 59 -12 165 l0 153 -52 0 c-41 -1 -49 -3
-35 -11z"/>
<path d="M5008 5688 c17 -17 17 -289 0 -306 -9 -9 1 -12 47 -12 46 0 56 3 47
12 -18 18 -16 162 3 178 8 7 22 10 30 6 19 -7 22 -165 3 -184 -9 -9 1 -12 47
-12 46 0 56 3 47 12 -7 7 -12 44 -12 95 0 70 -3 86 -20 103 -24 24 -57 26 -88
4 l-22 -15 0 65 0 66 -47 0 c-37 0 -44 -3 -35 -12z"/>
<path d="M6350 5688 c0 -7 35 -48 78 -91 l77 -78 -78 -76 c-52 -51 -76 -81
-72 -92 4 -11 31 10 100 79 l95 95 -87 87 c-83 83 -113 103 -113 76z"/>
<path d="M7638 5690 c21 -9 22 -13 22 -153 0 -139 -1 -144 -22 -155 -20 -9
-15 -11 32 -11 43 0 50 2 33 9 -22 9 -23 14 -23 141 0 73 2 130 4 128 2 -2 29
-62 60 -134 31 -71 60 -133 65 -138 4 -4 34 59 67 140 l59 148 3 -129 c1 -72
1 -135 -2 -142 -3 -7 -15 -14 -28 -17 -13 -2 20 -4 72 -5 52 0 84 3 70 7 l-25
7 0 149 0 149 25 7 c16 4 -1 7 -46 8 l-72 1 -42 -105 c-23 -58 -45 -105 -49
-105 -3 0 -26 48 -49 105 l-44 105 -66 -1 c-50 0 -61 -3 -44 -9z"/>
<path d="M9893 5689 c12 -7 17 -23 17 -60 0 -46 -1 -49 -19 -39 -73 39 -146
-54 -120 -152 18 -69 69 -96 117 -62 20 14 22 14 22 -1 0 -11 6 -15 18 -11 9
2 32 8 51 11 28 6 31 9 18 17 -15 8 -17 29 -17 158 l0 150 -52 0 c-41 -1 -49
-3 -35 -11z m6 -123 c19 -23 10 -156 -11 -170 -29 -18 -50 13 -52 76 -1 72 10
108 33 108 10 0 24 -6 30 -14z"/>
<path d="M4113 5583 c-14 -9 -23 -11 -23 -4 0 6 -19 11 -47 11 -37 0 -44 -3
-35 -12 16 -16 16 -180 0 -196 -9 -9 1 -12 47 -12 46 0 56 3 47 12 -7 7 -12
41 -12 83 0 77 15 113 44 102 13 -5 16 -22 16 -90 0 -51 -5 -88 -12 -95 -9 -9
1 -12 47 -12 46 0 56 3 47 12 -7 7 -12 44 -12 95 0 70 -3 86 -20 103 -24 24
-56 25 -87 3z"/>
<path d="M4325 5589 c-52 -30 -61 -85 -19 -124 15 -14 22 -25 16 -25 -6 0 -19
-11 -28 -25 -15 -23 -15 -27 -1 -49 15 -22 15 -25 1 -30 -23 -9 -13 -48 16
-64 15 -8 48 -11 84 -9 49 3 63 8 83 31 26 31 29 54 9 81 -11 15 -30 20 -85
23 -60 4 -71 7 -69 21 2 11 19 18 51 23 71 10 104 47 86 96 -7 18 -5 22 11 22
11 0 20 7 20 15 0 10 -10 15 -34 15 -18 0 -53 2 -77 5 -25 3 -53 1 -64 -6z
m79 -25 c9 -23 7 -77 -3 -92 -5 -8 -17 -12 -27 -10 -15 2 -20 13 -22 47 -2 24
-1 50 2 57 7 19 42 18 50 -2z m40 -230 c22 -8 20 -31 -3 -44 -29 -15 -97 -12
-111 5 -23 28 -4 45 49 45 27 0 56 -3 65 -6z"/>
<path d="M4833 5585 c-16 -11 -23 -26 -23 -48 0 -39 4 -44 58 -86 23 -18 42
-39 42 -46 0 -38 -62 -28 -84 13 l-15 27 -1 -40 0 -40 56 0 c47 0 59 4 75 24
35 44 25 72 -48 129 -26 21 -40 38 -36 47 9 25 40 17 67 -17 21 -27 26 -29 25
-13 -2 47 -13 60 -54 63 -24 2 -49 -4 -62 -13z"/>
<path d="M8139 5572 c-32 -28 -34 -35 -34 -92 0 -57 2 -64 34 -92 29 -26 40
-29 73 -25 49 7 75 29 90 79 8 29 8 47 0 76 -15 50 -41 72 -90 79 -33 4 -44 1
-73 -25z m92 -19 c13 -34 6 -150 -10 -166 -8 -8 -16 -9 -29 -1 -13 9 -18 28
-20 88 -3 79 6 106 34 106 8 0 19 -12 25 -27z"/>
<path d="M8465 5574 c-24 -26 -25 -26 -25 -5 0 18 -6 21 -47 21 -37 0 -44 -3
-35 -12 7 -7 12 -44 12 -98 0 -54 -5 -91 -12 -98 -9 -9 2 -12 52 -12 56 0 61
2 46 13 -16 11 -18 24 -14 80 5 80 16 97 53 77 31 -16 48 -4 43 31 -5 35 -42
37 -73 3z"/>
<path d="M8591 5578 c-34 -36 -27 -66 30 -118 36 -33 50 -53 46 -64 -10 -26
-44 -18 -71 17 l-26 32 0 -30 c0 -42 9 -50 62 -53 61 -5 91 22 86 76 -2 30
-11 42 -48 70 -47 36 -59 55 -40 67 18 11 49 -5 65 -33 l14 -27 1 40 0 40 -49
3 c-41 2 -54 -2 -70 -20z"/>
<path d="M8822 5587 c-36 -21 -54 -55 -55 -108 -1 -79 52 -131 117 -115 28 7
66 39 66 56 0 6 -9 1 -20 -10 -38 -38 -83 -16 -96 48 l-6 32 61 0 c59 0 61 1
61 26 0 32 -50 84 -82 84 -13 -1 -33 -6 -46 -13z m66 -45 c3 -30 1 -32 -27
-32 -26 0 -31 4 -31 23 0 54 53 62 58 9z"/>
<path d="M9572 5590 c-32 -13 -65 -91 -56 -133 10 -50 41 -85 80 -93 73 -13
124 36 124 121 0 40 -5 52 -34 81 -35 35 -68 42 -114 24z m67 -24 c8 -9 11
-43 9 -92 -2 -60 -7 -79 -20 -88 -28 -17 -42 7 -46 77 -6 94 23 145 57 103z"/>
<path d="M10102 5587 c-36 -21 -54 -55 -55 -108 -1 -79 52 -131 117 -115 28 7
66 39 66 56 0 6 -9 1 -20 -10 -38 -38 -83 -16 -96 48 l-6 32 61 0 c59 0 61 1
61 26 0 32 -50 84 -82 84 -13 -1 -33 -6 -46 -13z m66 -45 c3 -30 1 -32 -27
-32 -26 0 -31 4 -31 23 0 54 53 62 58 9z"/>
<path d="M4673 5579 c14 -8 17 -25 17 -99 0 -74 -3 -91 -17 -99 -14 -8 -2 -10
46 -11 51 0 62 3 53 12 -8 8 -12 47 -12 110 l0 98 -52 0 c-41 -1 -49 -3 -35
-11z"/>
<path d="M8980 5485 c0 -24 2 -25 70 -25 68 0 70 1 70 25 0 24 -2 25 -70 25
-68 0 -70 -1 -70 -25z"/>
<path d="M11472 4579 c-49 -14 -118 -88 -132 -141 -26 -95 10 -191 92 -245
l42 -28 856 0 856 0 42 28 c23 15 54 46 69 69 24 36 28 52 28 113 0 61 -4 77
-28 113 -15 23 -46 54 -69 69 l-42 28 -840 2 c-519 1 -854 -2 -874 -8z m738
-69 c45 -23 80 -80 80 -130 0 -50 -35 -107 -80 -130 -37 -19 -58 -20 -370 -20
-312 0 -333 1 -370 20 -45 23 -80 80 -80 130 0 48 35 107 78 129 35 19 58 20
370 21 314 0 335 -1 372 -20z"/>
<path d="M0 4023 l0 -38 6675 -4 6675 -3 0 41 0 41 -6675 0 -6675 0 0 -37z"/>
<path d="M11 3966 c-8 -10 -11 -334 -9 -1229 3 -1210 3 -1216 24 -1243 11 -15
33 -37 48 -48 l27 -21 3311 -3 c2444 -1 3314 1 3324 9 19 16 21 2518 2 2537
-19 19 -6711 17 -6727 -2z m6719 -1266 l0 -1260 -3302 0 c-3278 0 -3303 0
-3336 20 -18 11 -41 34 -52 52 -20 32 -20 53 -20 1241 l0 1207 3355 0 3355 0
0 -1260z"/>
<path d="M2995 3600 c0 -195 1 -275 2 -178 2 98 2 258 0 355 -1 98 -2 18 -2
-177z"/>
<path d="M80 3590 l0 -190 63 0 c108 0 165 28 180 89 6 25 -16 91 -30 91 -4 0
-14 4 -21 9 -11 6 -8 14 12 34 28 28 34 73 15 109 -16 30 -71 48 -149 48 l-70
0 0 -190z m150 137 c27 -14 35 -36 26 -72 -6 -25 -49 -45 -97 -45 -29 0 -29 0
-29 65 l0 65 38 0 c20 0 48 -6 62 -13z m18 -173 c16 -11 22 -25 22 -50 0 -30
-4 -37 -35 -50 -19 -7 -50 -14 -70 -14 l-35 0 0 65 0 65 48 0 c27 0 57 -7 70
-16z"/>
<path d="M1050 3590 l0 -190 25 0 c25 0 25 1 25 85 l0 85 85 0 85 0 0 -85 c0
-84 0 -85 25 -85 l25 0 0 190 0 190 -25 0 c-24 0 -24 -2 -27 -82 l-3 -83 -80
0 -80 0 -3 83 c-3 80 -3 82 -27 82 l-25 0 0 -190z"/>
<path d="M1465 3690 c-105 -43 -115 -232 -15 -283 98 -51 200 24 200 145 0
105 -95 176 -185 138z m113 -66 c17 -19 22 -37 22 -79 0 -71 -30 -109 -85
-109 -55 0 -85 38 -85 107 0 57 18 93 54 107 31 13 68 3 94 -26z"/>
<path d="M1811 3682 c-50 -25 -74 -63 -79 -124 -5 -64 15 -119 52 -143 56 -37
166 -27 166 14 0 17 -4 18 -36 10 -78 -22 -134 19 -134 97 0 59 16 90 57 109
28 13 43 15 74 7 35 -9 39 -8 39 9 0 38 -82 51 -139 21z"/>
<path d="M2141 3682 c-50 -25 -74 -63 -79 -124 -5 -64 15 -119 52 -143 56 -37
166 -27 166 14 0 17 -4 18 -36 10 -78 -22 -134 19 -134 97 0 59 16 90 57 109
28 13 43 15 74 7 35 -9 39 -8 39 9 0 38 -82 51 -139 21z"/>
<path d="M440 3544 c56 -139 59 -148 45 -175 -18 -34 -52 -59 -82 -59 -16 0
-23 -6 -23 -20 0 -46 103 -12 143 48 22 34 137 321 137 343 0 5 -10 9 -23 9
-20 0 -28 -13 -61 -107 -21 -60 -42 -112 -46 -116 -4 -4 -26 44 -50 108 -41
109 -45 115 -71 115 l-27 0 58 -146z"/>
<path d="M2420 3544 c56 -139 59 -148 45 -175 -18 -34 -52 -59 -82 -59 -16 0
-23 -6 -23 -20 0 -46 103 -12 143 48 22 34 137 321 137 343 0 5 -10 9 -23 9
-20 0 -28 -13 -61 -107 -21 -60 -42 -112 -46 -116 -4 -4 -26 44 -50 108 -41
109 -45 115 -71 115 l-27 0 58 -146z"/>
<path d="M2750 3544 c56 -139 59 -148 45 -175 -18 -34 -52 -59 -82 -59 -16 0
-23 -6 -23 -20 0 -46 103 -12 143 48 22 34 137 321 137 343 0 5 -10 9 -23 9
-20 0 -28 -13 -61 -107 -21 -60 -42 -112 -46 -116 -4 -4 -26 44 -50 108 -41
109 -45 115 -71 115 l-27 0 58 -146z"/>
<path d="M10217 3579 c-54 -127 -96 -234 -93 -236 17 -17 41 27 126 227 52
123 97 227 98 232 2 4 -5 8 -15 8 -15 0 -39 -47 -116 -231z"/>
<path d="M6860 3560 c0 -18 7 -20 80 -20 73 0 80 2 80 20 0 18 -7 20 -80 20
-73 0 -80 -2 -80 -20z"/>
<path d="M8510 3560 c0 -18 7 -20 80 -20 73 0 80 2 80 20 0 18 -7 20 -80 20
-73 0 -80 -2 -80 -20z"/>
<path d="M9170 3560 c0 -18 7 -20 80 -20 73 0 80 2 80 20 0 18 -7 20 -80 20
-73 0 -80 -2 -80 -20z"/>
<path d="M9500 3560 c0 -18 7 -20 80 -20 73 0 80 2 80 20 0 18 -7 20 -80 20
-73 0 -80 -2 -80 -20z"/>
<path d="M12470 3560 c0 -18 7 -20 80 -20 73 0 80 2 80 20 0 18 -7 20 -80 20
-73 0 -80 -2 -80 -20z"/>
<path d="M12800 3560 c0 -18 7 -20 80 -20 73 0 80 2 80 20 0 18 -7 20 -80 20
-73 0 -80 -2 -80 -20z"/>
<path d="M7231 3458 c-10 -28 -4 -45 19 -58 25 -14 49 -2 56 26 13 49 -58 78
-75 32z"/>
<path d="M7561 3458 c-10 -28 -4 -45 19 -58 25 -14 49 -2 56 26 13 49 -58 78
-75 32z"/>
<path d="M7891 3458 c-10 -28 -4 -45 19 -58 25 -14 49 -2 56 26 13 49 -58 78
-75 32z"/>
<path d="M8881 3458 c-10 -28 -4 -45 19 -58 25 -14 49 -2 56 26 13 49 -58 78
-75 32z"/>
<path d="M10860 3461 c-22 -42 27 -86 61 -55 22 20 25 44 7 62 -18 18 -56 14
-68 -7z"/>
<path d="M11190 3461 c-22 -42 27 -86 61 -55 22 20 25 44 7 62 -18 18 -56 14
-68 -7z"/>
<path d="M11520 3461 c-22 -42 27 -86 61 -55 22 20 25 44 7 62 -18 18 -56 14
-68 -7z"/>
<path d="M11850 3461 c-22 -42 27 -86 61 -55 22 20 25 44 7 62 -18 18 -56 14
-68 -7z"/>
<path d="M6860 2860 c0 -18 7 -20 80 -20 73 0 80 2 80 20 0 18 -7 20 -80 20
-73 0 -80 -2 -80 -20z"/>
<path d="M7520 2860 c0 -18 7 -20 80 -20 73 0 80 2 80 20 0 18 -7 20 -80 20
-73 0 -80 -2 -80 -20z"/>
<path d="M8180 2860 c0 -18 7 -20 80 -20 73 0 80 2 80 20 0 18 -7 20 -80 20
-73 0 -80 -2 -80 -20z"/>
<path d="M9170 2860 c0 -18 7 -20 80 -20 73 0 80 2 80 20 0 18 -7 20 -80 20
-73 0 -80 -2 -80 -20z"/>
<path d="M9830 2860 c0 -18 7 -20 80 -20 73 0 80 2 80 20 0 18 -7 20 -80 20
-73 0 -80 -2 -80 -20z"/>
<path d="M10820 2860 c0 -18 7 -20 80 -20 73 0 80 2 80 20 0 18 -7 20 -80 20
-73 0 -80 -2 -80 -20z"/>
<path d="M11480 2860 c0 -18 7 -20 80 -20 73 0 80 2 80 20 0 18 -7 20 -80 20
-73 0 -80 -2 -80 -20z"/>
<path d="M11810 2860 c0 -18 7 -20 80 -20 73 0 80 2 80 20 0 18 -7 20 -80 20
-73 0 -80 -2 -80 -20z"/>
<path d="M7891 2758 c-10 -28 -4 -45 19 -58 25 -14 49 -2 56 26 13 49 -58 78
-75 32z"/>
<path d="M8551 2758 c-10 -28 -4 -45 19 -58 25 -14 49 -2 56 26 13 49 -58 78
-75 32z"/>
<path d="M9541 2758 c-10 -28 -4 -45 19 -58 25 -14 49 -2 56 26 13 49 -58 78
-75 32z"/>
<path d="M10201 2758 c-10 -28 -4 -45 19 -58 25 -14 49 -2 56 26 13 49 -58 78
-75 32z"/>
<path d="M11190 2761 c-22 -42 27 -86 61 -55 22 20 25 44 7 62 -18 18 -56 14
-68 -7z"/>
<path d="M6860 2160 c0 -18 7 -20 80 -20 73 0 80 2 80 20 0 18 -7 20 -80 20
-73 0 -80 -2 -80 -20z"/>
<path d="M7520 2160 c0 -18 7 -20 80 -20 73 0 80 2 80 20 0 18 -7 20 -80 20
-73 0 -80 -2 -80 -20z"/>
<path d="M7850 2160 c0 -18 7 -20 80 -20 73 0 80 2 80 20 0 18 -7 20 -80 20
-73 0 -80 -2 -80 -20z"/>
<path d="M7231 2058 c-10 -28 -4 -45 19 -58 25 -14 49 -2 56 26 13 49 -58 78
-75 32z"/>
<path d="M795 1200 c-117 -38 -219 -143 -256 -263 -18 -59 -21 -86 -17 -210 4
-137 6 -145 42 -232 21 -49 51 -109 67 -132 59 -85 158 -149 267 -172 74 -16
1990 -16 2064 0 84 18 158 58 219 118 99 100 135 212 127 403 -6 129 -27 201
-80 276 -45 63 -188 176 -257 204 l-56 23 -1030 2 c-994 2 -1032 1 -1090 -17z
m2120 -15 c114 -29 224 -129 262 -240 25 -71 25 -309 0 -380 -38 -111 -148
-211 -262 -240 -89 -23 -2001 -23 -2090 0 -114 29 -224 129 -262 240 -25 71
-25 309 0 380 38 108 147 210 257 239 85 22 2008 23 2095 1z"/>
<path d="M1702 998 c-8 -8 -12 -57 -12 -155 0 -136 1 -143 20 -143 19 0 20 7
20 135 l0 135 115 0 c108 0 115 1 115 20 0 19 -7 20 -123 20 -82 0 -127 -4
-135 -12z"/>
<path d="M1777 923 c-4 -3 -7 -79 -7 -169 0 -138 2 -163 16 -168 30 -12 249
-7 262 6 8 8 12 60 12 169 0 134 -2 158 -16 163 -21 8 -259 8 -267 -1z m243
-168 l0 -135 -105 0 -105 0 0 135 0 135 105 0 105 0 0 -135z"/>
<path d="M4135 1130 c-117 -38 -219 -143 -256 -263 -18 -59 -21 -86 -17 -210
4 -137 6 -145 42 -232 21 -49 51 -109 67 -132 59 -85 158 -149 267 -172 74
-16 1990 -16 2064 0 84 18 158 58 219 118 99 100 135 212 127 403 -6 129 -27
201 -80 276 -45 63 -188 176 -257 204 l-56 23 -1030 2 c-994 2 -1032 1 -1090
-17z m2120 -15 c114 -29 224 -129 262 -240 14 -38 18 -82 18 -190 0 -108 -4
-152 -18 -190 -38 -111 -148 -211 -262 -240 -89 -23 -2001 -23 -2090 0 -114
29 -224 129 -262 240 -25 71 -25 309 0 380 38 108 147 210 257 239 85 22 2008
23 2095 1z"/>
<path d="M4530 695 l0 -115 61 0 c54 0 64 3 90 29 25 26 29 37 29 86 0 49 -4
60 -29 86 -26 26 -36 29 -90 29 l-61 0 0 -115z m134 63 c9 -12 16 -41 16 -63
0 -63 -21 -85 -81 -85 l-49 0 0 85 0 85 49 0 c40 0 53 -4 65 -22z"/>
<path d="M5340 695 c0 -96 3 -115 15 -115 12 0 15 19 15 115 0 96 -3 115 -15
115 -12 0 -15 -19 -15 -115z"/>
<path d="M5870 776 c0 -34 -1 -35 -34 -29 -48 8 -76 -22 -76 -80 0 -60 28 -86
93 -85 l47 1 0 114 c0 94 -3 113 -15 113 -10 0 -15 -10 -15 -34z m-19 -56 c28
-15 27 -95 -1 -110 -42 -23 -81 30 -61 83 8 21 19 31 39 36 2 1 12 -4 23 -9z"/>
<path d="M4765 725 c-68 -67 12 -179 95 -135 26 14 41 73 28 111 -19 54 -82
66 -123 24z m85 -15 c11 -11 20 -31 20 -45 0 -23 -31 -65 -48 -65 -25 0 -52
34 -52 65 0 24 7 39 22 49 29 20 34 20 58 -4z"/>
<path d="M4913 736 c3 -7 15 -46 27 -85 24 -83 44 -92 60 -28 21 83 25 85 40
19 19 -91 39 -85 71 23 20 66 23 85 13 85 -8 0 -21 -24 -30 -60 -16 -55 -34
-72 -34 -32 0 36 -22 92 -35 92 -14 0 -15 -3 -36 -80 -13 -50 -18 -45 -39 38
-7 27 -16 42 -26 42 -10 0 -14 -6 -11 -14z"/>
<path d="M5160 665 c0 -69 3 -85 15 -85 12 0 15 13 15 59 0 41 5 65 16 75 18
19 20 19 45 6 16 -9 19 -22 19 -75 0 -54 3 -65 16 -65 14 0 16 10 12 70 -3 38
-11 77 -18 85 -15 18 -61 20 -78 3 -9 -9 -12 -9 -12 0 0 7 -7 12 -15 12 -12 0
-15 -16 -15 -85z"/>
<path d="M5425 725 c-73 -72 28 -194 103 -125 16 15 22 32 22 64 0 77 -73 114
-125 61z m75 -5 c36 -20 33 -99 -6 -114 -9 -3 -27 1 -40 9 -32 21 -33 77 -2
99 26 19 24 19 48 6z"/>
<path d="M5612 734 c-12 -8 -22 -22 -22 -30 0 -20 13 -18 33 6 20 24 36 25 63
5 16 -13 17 -16 4 -25 -8 -5 -27 -10 -41 -10 -42 0 -73 -31 -65 -63 8 -32 46
-45 88 -29 16 6 28 6 28 1 0 -5 6 -9 13 -9 20 0 10 141 -11 158 -22 17 -63 15
-90 -4z m88 -84 c0 -13 -37 -50 -49 -50 -39 0 -54 31 -23 49 22 13 72 14 72 1z"/>
<path d="M7475 1130 c-117 -38 -219 -143 -256 -263 -18 -59 -21 -86 -17 -210
4 -137 6 -145 42 -232 21 -49 51 -109 67 -132 59 -85 158 -149 267 -172 74
-16 1990 -16 2064 0 84 18 158 58 219 118 99 100 135 212 127 403 -6 129 -27
201 -80 276 -45 63 -188 176 -257 204 l-56 23 -1030 2 c-994 2 -1032 1 -1090
-17z m2120 -15 c114 -29 224 -129 262 -240 14 -38 18 -82 18 -190 0 -108 -4
-152 -18 -190 -38 -111 -148 -211 -262 -240 -89 -23 -2001 -23 -2090 0 -114
29 -224 129 -262 240 -14 38 -18 82 -18 190 0 108 4 152 18 190 38 108 147
210 257 239 85 22 2008 23 2095 1z"/>
<path d="M8227 803 c-5 -9 -45 -111 -72 -185 -12 -34 -12 -38 1 -38 9 0 21 14
27 30 11 28 15 30 62 30 47 0 51 -2 62 -30 6 -17 19 -30 28 -30 20 0 18 6 -35
133 -35 83 -59 113 -73 90z m47 -110 c7 -21 4 -23 -28 -23 -42 0 -41 0 -19 59
l17 45 12 -30 c6 -16 15 -39 18 -51z"/>
<path d="M8660 770 c0 -39 -1 -39 -25 -28 -54 24 -104 -28 -91 -96 9 -45 39
-66 94 -63 l42 1 0 113 c0 69 -4 113 -10 113 -5 0 -10 -18 -10 -40z m-20 -60
c44 -44 5 -129 -45 -96 -27 18 -32 72 -9 97 22 24 29 24 54 -1z"/>
<path d="M8730 795 c0 -8 7 -15 15 -15 8 0 15 7 15 15 0 8 -7 15 -15 15 -8 0
-15 -7 -15 -15z"/>
<path d="M8370 696 c0 -30 4 -66 10 -80 11 -30 54 -44 82 -27 11 7 18 7 18 1
0 -5 7 -10 15 -10 12 0 15 16 15 85 0 69 -3 85 -15 85 -12 0 -15 -13 -15 -59
0 -41 -5 -65 -16 -75 -18 -19 -20 -19 -45 -6 -16 9 -19 22 -19 75 0 51 -3 65
-15 65 -11 0 -15 -13 -15 -54z"/>
<path d="M8730 665 c0 -69 3 -85 15 -85 12 0 15 16 15 85 0 69 -3 85 -15 85
-12 0 -15 -16 -15 -85z"/>
<path d="M8815 725 c-68 -67 12 -179 95 -135 26 14 41 73 28 111 -19 54 -82
66 -123 24z m85 -15 c11 -11 20 -31 20 -45 0 -23 -31 -65 -48 -65 -25 0 -52
34 -52 65 0 24 7 39 22 49 29 20 34 20 58 -4z"/>
<path d="M10817 1130 c-108 -34 -188 -104 -240 -210 l-32 -65 0 -170 0 -170
38 -89 c48 -114 66 -143 126 -199 57 -53 109 -81 188 -102 87 -23 1750 -22
1838 0 82 22 147 60 204 120 97 103 125 191 119 383 -5 153 -22 217 -82 295
-48 63 -163 156 -236 191 l-65 31 -900 2 c-855 2 -903 1 -958 -17z m463 -335
c0 -10 -11 -15 -35 -15 l-35 0 0 -100 c0 -93 -1 -100 -20 -100 -19 0 -20 7
-20 100 l0 100 -40 0 c-29 0 -40 4 -40 15 0 12 17 15 95 15 78 0 95 -3 95 -15z
m670 -100 c0 -108 -1 -115 -20 -115 -19 0 -20 7 -20 115 0 108 1 115 20 115
19 0 20 -7 20 -115z m250 85 c0 -20 5 -30 15 -30 8 0 15 -7 15 -15 0 -8 -7
-15 -15 -15 -11 0 -15 -12 -15 -48 0 -37 5 -52 23 -67 l22 -20 -23 -3 c-45 -7
-52 3 -52 73 0 37 -4 65 -10 65 -5 0 -10 7 -10 15 0 8 5 15 10 15 6 0 10 11
10 23 0 13 3 27 7 30 14 15 23 6 23 -23z m-812 -42 c-3 -7 -15 -15 -29 -18
-22 -5 -24 -11 -27 -73 -3 -59 -5 -67 -22 -67 -18 0 -20 7 -20 85 l0 85 51 0
c35 0 49 -4 47 -12z m134 0 c12 -9 18 -33 20 -84 l3 -71 -64 -1 c-73 -1 -91 8
-91 49 0 32 15 43 73 53 23 4 37 13 37 21 0 20 -59 20 -66 0 -7 -17 -44 -21
-44 -5 0 6 9 19 20 30 23 23 87 27 112 8z m182 -4 c12 -11 16 -35 16 -85 0
-62 -2 -69 -20 -69 -17 0 -19 8 -22 67 -3 58 -6 68 -22 71 -29 6 -46 -25 -46
-85 0 -40 -4 -53 -15 -53 -12 0 -15 16 -15 84 l0 83 54 2 c38 0 60 -4 70 -15z
m157 6 c21 -12 26 -40 6 -40 -7 0 -18 5 -24 11 -12 12 -58 8 -58 -5 0 -5 18
-15 39 -22 21 -8 45 -19 52 -25 35 -29 0 -79 -56 -79 -39 0 -63 14 -73 43 -8
22 31 24 39 2 8 -20 64 -20 64 -1 0 8 -17 20 -37 27 -50 16 -63 27 -63 55 0
39 64 58 111 34z m249 0 c10 -6 17 -33 20 -83 l5 -74 -65 -1 c-73 -1 -90 8
-90 49 0 32 15 43 73 53 43 8 46 29 4 34 -18 2 -29 -2 -33 -12 -7 -17 -44 -22
-44 -6 0 6 9 19 20 30 21 21 83 27 110 10z m270 -10 c11 -11 20 -31 20 -45 0
-24 -3 -25 -60 -25 -64 0 -66 -1 -50 -31 11 -20 54 -26 65 -9 7 11 45 14 45 3
0 -21 -37 -43 -72 -43 -58 0 -92 37 -85 93 4 26 14 49 27 59 30 24 85 23 110
-2z"/>
<path d="M11453 653 c-32 -6 -31 -43 0 -43 25 0 47 17 47 37 0 13 -6 14 -47 6z"/>
<path d="M12043 653 c-32 -6 -31 -43 0 -43 25 0 47 17 47 37 0 13 -6 14 -47 6z"/>
<path d="M12290 706 c-11 -14 -7 -16 30 -16 29 0 40 4 38 13 -7 18 -53 20 -68
3z"/>
</g>
</svg>