<?xml version="1.0" encoding="utf-8"?>
<!-- Generator: Adobe Illustrator 26.0.3, SVG Export Plug-In . SVG Version: 6.00 Build 0)  -->
<svg version="1.0" id="Layer_1" xmlns="http://www.w3.org/2000/svg" xmlns:xlink="http://www.w3.org/1999/xlink" x="0px" y="0px"
	 viewBox="0 0 1010.5 759.6" style="enable-background:new 0 0 1010.5 759.6;" xml:space="preserve">
<style type="text/css">
	.st0{fill:url(#SVGID_1_);}
	.st1{fill:#F2F2F2;}
</style>
<linearGradient id="SVGID_1_" gradientUnits="userSpaceOnUse" x1="557.238" y1="482.2211" x2="461.698" y2="-59.3889" gradientTransform="matrix(1 0 0 1 -15.53 187.67)">
	<stop  offset="0.15" style="stop-color:#2974BA"/>
	<stop  offset="0.8" style="stop-color:#679CD3"/>
	<stop  offset="1" style="stop-color:#89B6E2"/>
</linearGradient>
<path class="st0" d="M724.5,318.3c-3.5-112.6-97-201.5-209.7-199.1c-89.8-1.1-170.3,54.9-200.7,139.4
	c-95.3,12.9-166.8,93.5-168.4,189.6c2.9,109,93.5,195,202.5,192.3h349.5c89.9-2.2,162.7-73.5,167-163.2
	C863.1,397.1,803.8,329.9,724.5,318.3z"/>
<path class="st1" d="M661,488.1V352.3h-35.9v165h98.2v-29.2H661z M375.8,421.4c-7.4-3-14.3-7.2-20.4-12.4c-1.6-1.7-2.9-3.7-3.7-5.9
	c-0.8-2.2-1.2-4.5-1.1-6.9c-0.2-4.8,2-9.3,6-12c4.9-3.4,10.8-5.1,16.8-4.8c14.2-0.6,28.3,3.4,39.9,11.6v-34.3
	c-12.8-4.8-26.3-6.9-39.9-6.4c-15.7-0.8-31.1,4-43.5,13.6c-11,8.5-17.2,21.7-16.8,35.5c0,20.4,12.8,36.4,39.9,48.3
	c8.8,3.7,17.1,8.6,24.8,14.4c3.8,3.2,6,7.8,6,12.8c0,4.9-2.4,9.5-6.4,12.4c-5.4,3.2-11.7,4.7-18,4.4c-16.1-0.1-31.5-6.1-43.5-16.8
	V512c13.2,6.8,27.9,10.1,42.7,9.6c16.7,1,33.3-3.6,47.1-13.2c9.9-9.4,14.8-22.8,13.2-36.3c0.2-10.2-3.4-20.2-10-28
	C399.6,434.3,388.4,426.5,375.8,421.4L375.8,421.4z M585.1,484.9c17.7-28.4,17.7-64.3,0-92.7c-6.2-12.5-16-22.9-28-30
	c-12.2-6.9-25.9-10.4-39.9-10.3c-15.1-0.3-30,3.4-43.1,10.8c-12.3,6.9-22.5,17.1-29.2,29.5c-7.1,14.1-10.7,29.8-10.4,45.6
	c0.1,13.9,3.4,27.5,9.6,39.9c6.1,12.3,15.7,22.6,27.6,29.5c12.1,7.4,25.8,11.5,39.9,12l34.4,39.9h48.3l-49.1-43.9
	C561.7,510.3,575.9,499.5,585.1,484.9L585.1,484.9z M545.2,474.9c-7.4,9.2-18.6,14.3-30.4,14c-11.9,0.4-23.2-4.9-30.4-14.4
	c-8.4-11.5-12.5-25.7-11.6-39.9c-0.9-14.3,3.2-28.4,11.6-39.9c7.6-9.4,19.1-14.8,31.2-14.8c11.9-0.5,23.2,5,30,14.8
	c7.9,11.8,11.7,25.8,10.8,39.9C557.8,448.9,553.8,463.3,545.2,474.9L545.2,474.9z"/>
</svg>
