<svg version="1.2" xmlns="http://www.w3.org/2000/svg" viewBox="0 0 1801 1529" width="1801" height="1529"><style>.a{fill:#fff}.b{fill:#ff6200}</style><path fill-rule="evenodd" class="a" d="m865.6 2.9c66.9-4.2 134.6 2.5 199.2 20.7 32.4 10 64.5 21.5 93.8 38.8 43.6 25 82.2 60.4 106.3 104.8 21.5 39 31.9 83.1 36.1 127.1 4.7 50.2 3.7 100.7 3.6 151q0 142.8 0 285.5c0.1 31.4-1.4 63.1 5.2 94 5.7 30.4 18.9 58.9 36.3 84.3 12.2 18.4 25.9 35.7 38.6 53.7 9.8 14.3 12.7 36.6-1.8 49-50.8 42.9-101.8 85.7-151.7 129.8-8.1 6.9-16.9 14.4-27.9 15.8-11.6 1.6-24.5-1.1-33.4-9-26.2-21.6-51.1-45.2-71.8-72.2-14.4-19.3-27.4-39.6-41.2-59.3-29.1 28.6-59.2 56.6-92.5 80.2-36.4 25-76.8 44.7-119.9 54.8-46 11.6-93.8 12.7-140.9 12.8-31.7-1.7-63.9-4.9-94.1-15.4-36.5-10.8-70.8-29.1-99.7-53.9-38.5-32.4-66.3-76.7-81.7-124.5-15.2-46.1-18.9-95.2-18.2-143.5 2.8-65.4 22-130.8 59.5-184.8 30.4-44.9 72.5-81.4 119.6-107.8 51-28.7 107.7-45.1 164.7-56.7 86.5-17.8 174.8-23.8 262.4-33.5-0.5-36.5 1.8-73.3-2.6-109.7-3.7-31.5-15.8-63.7-40.7-84.7-29.3-24.9-69.2-34.7-107.1-32.3-42.8 1.1-86.3 16.8-116.8 47.5-20 19.9-32.8 46.3-38.5 73.8-3.3 15.8-13.3 31.8-29.5 36.4-6.4 2.7-13.2 0.8-19.7 0-60.7-6-121.3-12.9-181.9-19.5-9-0.5-17.3-5-24.3-10.4-9.6-7.8-13-21.1-10.4-32.9 12.2-71.4 46.5-139.5 99-189.8 54.8-53.6 127.1-86.1 201-103.6 39.8-9.1 80.3-14.9 121-16.5zm4.6 619.4c-39.8 10.1-79.6 26.3-109.4 55.3-31.3 29.3-47.5 71.7-50.4 113.9-1.7 37.5 1.8 76.8 20.6 110 17.5 31.8 51 54.5 87.5 57.3 31.6 4.5 63.7-4.2 91.2-19.7 27.5-16.9 50-41.1 66.2-68.9 19.7-34.1 32.1-72.2 36.4-111.3 5.6-50.2 3.4-100.9 3.6-151.4-48.9 0.6-98.1 3.3-145.7 14.8z"/><path class="b" d="m1633.6 1124c31.6-3.2 63.7-2.7 95.2 1.6 21.2 2.9 43.2 6.4 61.6 18.1 6.2 3.7 7.8 11.2 9.1 17.7 3.1 20.4 0.9 41.2-2 61.6-6.4 40.1-18.4 79.4-35.7 116.3-17.3 37.8-40.8 73.2-71.6 101.3-5.9 5.3-11.4 11.9-19.5 13.5-4.6 0.5-10.7 0.2-12.9-4.5-3.1-7 0.8-14.2 3-20.8 15.4-38.3 30.3-76.9 42-116.6 6.9-24 13.3-48.4 13.9-73.4-0.1-11-1.3-23.8-10.6-31.2-8.6-6.4-19.3-9.4-29.7-11.6-22.7-3.5-45.7-4.4-68.6-3.2-41.5 0.5-82.7 5.4-123.8 10.3-5.5 0.4-11.7 1.4-16.7-1.6-5.8-4.8-3.5-13.8 1.1-18.6 8.6-9.1 20-14.9 30.8-21.1 41.2-22.7 87.9-33.3 134.4-37.8z"/><path class="b" d="m10 1159.1c10.2-4.8 20.1 2.2 28.7 7 120 69.2 248.9 121.9 381.6 160.9 46 12.4 92 25 138.9 33.7 26.3 4.9 52.4 10.8 78.9 14.6 49.4 7.2 98.9 13.8 148.7 17.3 118.4 8.6 237.8 6 355.5-10.2 96.3-11.8 191.2-33.8 284.2-61.2 59.7-17.7 117.8-40.2 175.5-63.3 14.8-5.9 35.6 0.8 39.9 17.4 3.5 12.9-6.2 24.6-16.3 31.3-61.1 44.1-127.3 81.2-196.7 110.7-100.2 43.5-206.1 73.2-313.7 91.7-50.7 7.5-101.5 14.8-152.7 16.4-51.6 3.5-103.3 1.6-154.8-1.2-73.4-5.5-146.5-15.9-218.2-32.5-44.8-11.6-89.6-23-133.1-39-161.8-56.4-312.1-145.3-440-259.3-5.4-5-12.5-9.6-13.8-17.5-1.7-6.5 1.2-13.8 7.4-16.8z"/></svg>